<svg width="172" height="85" viewBox="0 0 172 85" fill="none" xmlns="http://www.w3.org/2000/svg">
<path opacity="0.08" d="M191.53 -10.5834C190.72 -12.4984 190.089 -14.6413 188.099 -16C184.649 -13.9756 181.272 -12.006 177.859 -9.99982C178.435 -8.89644 178.894 -8.13046 179.255 -7.31889C181.542 -2.23059 182.416 3.06744 179.552 8.07367C175.121 15.7973 167.997 20.0284 159.783 22.7002C159.44 21.7701 159.161 21.1501 158.99 20.4935C156.621 11.7577 150.974 5.99458 142.986 2.33794C135.384 -1.13633 127.333 -1.61963 119.236 -0.817173C114.311 -0.393065 109.486 0.838842 104.952 2.83035C106.041 6.03106 107.167 9.1041 108.113 12.2318C108.635 13.9462 109.59 14.3748 111.148 13.8732C114.683 12.8019 118.311 12.0781 121.983 11.7121C128.675 10.9187 134.988 11.9309 140.689 15.5146C144.292 17.7761 146.759 21.0862 147.111 25.4997C145.994 26.594 144.814 26.3204 143.724 26.3387C139.374 26.4116 135.069 26.822 130.674 26.5484C125.419 26.2509 120.184 25.6572 114.994 24.7702C102.763 22.6273 90.8116 19.226 78.8331 15.9614C62.5585 11.5206 46.4461 6.42317 29.487 4.92768C23.1373 4.28377 16.7276 4.6344 10.4835 5.96723C6.85388 6.7788 3.10721 7.77275 0 10.4537C1.91854 14.0841 4.026 17.609 6.31349 21.0133C10.2763 19.0527 13.9059 17.5208 18.0939 17.311C25.1549 16.9736 31.6215 18.8065 37.89 21.8066C48.1212 26.7034 56.9745 33.6884 65.8729 40.6096C74.1408 47.0384 82.1114 53.8684 90.6765 59.905C93.7297 62.0571 96.7739 64.2365 100.205 66.6803C90.6902 69.6789 80.8819 71.6235 70.9525 72.4799C71.673 76.9481 73.4653 80.8327 74.7172 85H151.794C153.001 80.9148 154.685 77.1122 155.37 72.6896C151.046 71.9966 146.84 71.5497 142.752 70.6196C138.735 69.6986 134.646 68.8415 130.728 66.89C131.056 66.5984 131.399 66.3245 131.755 66.0693C142.842 59.0205 152.668 50.7588 157.801 38.0381C158.027 37.4714 158.39 36.9718 158.858 36.5859C159.326 36.2 159.883 35.9404 160.476 35.8313C170.059 32.8951 178.687 28.3174 185.703 20.8309C194.007 11.9674 196.304 0.596243 191.566 -10.6017L191.53 -10.5834ZM132.98 49.8926C128.215 53.6879 123.061 56.953 117.606 59.6315C116.993 59.9952 116.294 60.1839 115.583 60.1775C114.873 60.171 114.177 59.9697 113.571 59.595C104.979 54.8991 96.7799 49.5011 89.0554 43.4547C82.3456 38.3299 75.852 32.9133 69.2773 27.6062C68.9514 27.259 68.6561 26.8837 68.3947 26.4846C92.8741 33.0501 116.831 40.5822 142.436 39.6612C139.802 43.5243 136.618 46.9719 132.989 49.8926H132.98Z" fill="#BFA274"/>
</svg>
