<svg width="62" height="62" viewBox="0 0 62 62" fill="none" xmlns="http://www.w3.org/2000/svg">
<path d="M20.91 7.65723H10.7078C10.0313 7.65723 9.38259 7.92595 8.90427 8.40427C8.42595 8.88259 8.15723 9.53134 8.15723 10.2078V20.41M20.91 53.5673H10.7078C10.0313 53.5673 9.38259 53.2986 8.90427 52.8203C8.42595 52.342 8.15723 51.6932 8.15723 51.0168V40.8145M41.3145 53.5673H51.5168C52.1932 53.5673 52.842 53.2986 53.3203 52.8203C53.7986 52.342 54.0673 51.6932 54.0673 51.0168V40.8145M41.3145 7.65723H51.5168C52.1932 7.65723 52.842 7.92595 53.3203 8.40427C53.7986 8.88259 54.0673 9.53134 54.0673 10.2078V20.41M41.3145 30.6123H20.91M31.1123 40.8145V20.41" stroke="#BFA274" stroke-width="2" stroke-linecap="round" stroke-linejoin="round"/>
</svg>
