<svg width="342" height="224" viewBox="0 0 342 224" fill="none" xmlns="http://www.w3.org/2000/svg">
<path d="M12.7934 163.013L9.69034 173.389H0L13.0439 134.41H25.4018L39.0554 173.389H28.8533L25.4127 163.013H12.7934ZM23.8774 156.219L21.0792 147.89C20.3062 145.603 19.5658 143.012 18.8907 140.834H18.771C18.1503 143.033 17.5515 145.625 16.8547 147.9L14.2198 156.219H23.8666H23.8774Z" fill="white"/>
<path d="M50.3467 134.418H59.5688V165.688H76.9244V173.397H50.3467V134.418Z" fill="white"/>
<path d="M98.5153 163.013L95.4122 173.389H85.7109L98.7548 134.41H111.113L124.766 173.389H114.564L111.124 163.013H98.5153ZM109.599 156.219L106.801 147.89C106.028 145.603 105.288 143.012 104.613 140.834H104.493C103.872 143.033 103.273 145.625 102.576 147.9L99.9416 156.219H109.588H109.599Z" fill="white"/>
<path d="M146.054 163.013L142.951 173.389H133.25L146.294 134.41H158.652L172.305 173.389H162.103L158.663 163.013H146.054ZM157.138 156.219L154.34 147.89C153.567 145.603 152.827 143.012 152.152 140.834H152.032C151.411 143.033 150.812 145.625 150.116 147.9L147.481 156.219H157.127H157.138Z" fill="white"/>
<path d="M183.604 134.931C188.006 134.325 192.445 134.034 196.888 134.06C205.108 134.06 210.411 135.497 214.559 138.481C218.849 141.508 221.658 146.124 221.658 152.799C221.658 160.126 218.729 165.146 214.864 168.347C210.28 172.059 203.192 173.823 194.863 173.823C191.1 173.874 187.339 173.667 183.604 173.203V134.931ZM192.827 166.55C194.037 166.69 195.256 166.745 196.474 166.713C205.892 166.801 211.837 162.119 211.837 153.278C211.859 145.155 206.23 141.094 197.661 141.094C196.041 141.067 194.422 141.194 192.827 141.475V166.55Z" fill="white"/>
<path d="M233.626 134.931C238.027 134.325 242.466 134.034 246.909 134.06C255.13 134.06 260.432 135.497 264.581 138.481C268.871 141.508 271.68 146.124 271.68 152.799C271.68 160.126 268.751 165.146 264.885 168.347C260.302 172.059 253.214 173.823 244.884 173.823C241.122 173.874 237.36 173.667 233.626 173.203V134.931ZM242.848 166.55C244.059 166.69 245.277 166.745 246.496 166.713C255.914 166.801 261.859 162.119 261.859 153.278C261.88 145.155 256.251 141.094 247.682 141.094C246.063 141.067 244.444 141.194 242.848 141.475V166.55Z" fill="white"/>
<path d="M292.879 134.418V173.397H283.657V134.418H292.879Z" fill="white"/>
<path d="M306.672 173.397V134.418H318.039L326.826 148.387C329.549 152.876 331.922 157.568 333.925 162.422L334.088 162.4C333.545 157.185 333.316 151.942 333.402 146.7V134.418H341.971V173.397H331.976L322.808 158.328C319.982 153.651 317.412 148.824 315.11 143.869L314.892 143.891C315.186 149.476 315.241 154.822 315.241 160.691V173.397H306.672Z" fill="white"/>
<path d="M105.48 196.874V212.411H109.324V216.179H105.382C105.268 217.288 104.912 218.358 104.34 219.316C103.768 220.273 102.995 221.094 102.072 221.721C100.106 223.043 97.7775 223.72 95.409 223.659C92.9506 223.696 90.556 222.876 88.6367 221.34C87.6688 220.565 86.8986 219.572 86.3894 218.442C85.8802 217.312 85.6466 216.077 85.7078 214.839V200.402H89.4968V214.839C89.468 215.558 89.6168 216.273 89.9302 216.921C90.2435 217.568 90.7117 218.129 91.2933 218.552C92.5577 219.426 94.0588 219.893 95.5958 219.892C97.1329 219.89 98.6327 219.419 99.8949 218.541C100.482 218.122 100.955 217.563 101.273 216.914C101.59 216.266 101.741 215.55 101.713 214.829V196.863H105.502L105.48 196.874ZM93.8411 192.083C93.6525 191.615 93.6525 191.092 93.8411 190.624C93.9417 190.398 94.0818 190.192 94.2549 190.015C94.4271 189.836 94.6348 189.695 94.8646 189.601C95.1646 189.493 95.4826 189.445 95.801 189.459C96.0188 189.469 96.2321 189.525 96.4272 189.623C96.6222 189.72 96.7946 189.857 96.9333 190.026C97.2823 190.38 97.4779 190.857 97.4779 191.354C97.4779 191.851 97.2823 192.328 96.9333 192.682C96.7899 192.843 96.616 192.974 96.4216 193.068C96.2273 193.161 96.0163 193.215 95.801 193.227C95.4826 193.241 95.1646 193.193 94.8646 193.085C94.407 192.896 94.0403 192.537 93.8411 192.083Z" fill="#BFA274"/>
<path d="M107.688 212.412H116.236V216.179H107.688V212.412Z" fill="#BFA274"/>
<path d="M114.562 212.412H123.109V216.179H114.562V212.412Z" fill="#BFA274"/>
<path d="M131.557 196.875V209.984C131.57 210.796 131.418 211.603 131.111 212.355C130.805 213.107 130.349 213.79 129.771 214.361C129.214 214.947 128.541 215.411 127.795 215.724C127.049 216.037 126.247 216.192 125.438 216.179H121.398V212.412H125.438C125.754 212.416 126.068 212.356 126.36 212.234C126.652 212.112 126.917 211.932 127.136 211.704C127.365 211.481 127.546 211.213 127.668 210.917C127.789 210.622 127.849 210.304 127.844 209.984V196.875H131.546H131.557ZM122.346 222.538C122.157 222.07 122.157 221.547 122.346 221.079C122.442 220.851 122.583 220.644 122.759 220.469C122.933 220.297 123.135 220.156 123.358 220.056C123.589 219.958 123.837 219.909 124.088 219.914C124.338 219.91 124.586 219.959 124.817 220.056C125.277 220.254 125.643 220.62 125.841 221.079C126.029 221.547 126.029 222.07 125.841 222.538C125.747 222.765 125.606 222.969 125.427 223.137C125.25 223.307 125.043 223.443 124.817 223.54C124.349 223.729 123.826 223.729 123.358 223.54C123.134 223.446 122.931 223.309 122.759 223.137C122.584 222.966 122.444 222.762 122.346 222.538ZM127.92 222.538C127.732 222.07 127.732 221.547 127.92 221.079C128.021 220.853 128.161 220.646 128.334 220.469C128.506 220.29 128.714 220.15 128.944 220.056C129.244 219.948 129.562 219.9 129.88 219.914C130.098 219.924 130.311 219.98 130.506 220.077C130.701 220.175 130.874 220.312 131.013 220.48C131.362 220.834 131.557 221.311 131.557 221.809C131.557 222.306 131.362 222.783 131.013 223.137C130.869 223.298 130.695 223.429 130.501 223.522C130.306 223.616 130.096 223.67 129.88 223.681C129.562 223.695 129.244 223.647 128.944 223.54C128.486 223.35 128.12 222.991 127.92 222.538Z" fill="#BFA274"/>
<path d="M136.935 196.875C143.577 196.875 147.395 198.007 148.389 200.272C149.249 202.014 149.756 203.908 149.881 205.847V212.412H153.703V216.179H135.879V212.412H146.092V205.836C146.092 202.373 143.04 200.642 136.935 200.642V196.875Z" fill="#BFA274"/>
<path d="M152.027 212.412H160.574V216.179H152.027V212.412Z" fill="#BFA274"/>
<path d="M166.891 189.383V209.994C166.885 211.634 166.23 213.206 165.069 214.364C163.908 215.523 162.336 216.175 160.696 216.178H158.921V212.411H160.685C161.004 212.415 161.322 212.355 161.617 212.233C161.913 212.111 162.181 211.931 162.405 211.703C162.635 211.485 162.816 211.221 162.938 210.929C163.06 210.636 163.119 210.322 163.113 210.005V189.394H166.902L166.891 189.383Z" fill="#BFA274"/>
<path d="M174.837 189.383V216.167H171.048V189.383H174.837Z" fill="#BFA274"/>
<path d="M189.811 212.412C188.79 210.579 188.268 208.51 188.298 206.412C188.261 204.31 188.993 202.266 190.355 200.664C191.727 199.041 193.829 198.192 196.66 198.148H200.688V201.916H196.768C196.117 201.927 195.474 202.069 194.879 202.335C194.284 202.601 193.749 202.984 193.306 203.462C192.493 204.395 192.058 205.599 192.087 206.837C192.085 208.159 192.41 209.461 193.034 210.626C193.665 211.824 194.406 212.423 195.277 212.423H204.14V216.19H185.478V212.423H189.822L189.811 212.412Z" fill="#BFA274"/>
<path d="M215.677 196.874V212.411H223.985V189.383H227.774V212.411H231.617V216.178H208.339V212.411H211.899V196.874H215.688H215.677Z" fill="#BFA274"/>
<path d="M229.941 212.412H238.489V216.179H229.941V212.412Z" fill="#BFA274"/>
<path d="M244.445 205.494V212.408H255.638V216.175H236.812V212.408H240.656V205.494C240.64 204.358 240.852 203.23 241.279 202.176C241.706 201.123 242.339 200.166 243.142 199.361C243.944 198.556 244.9 197.921 245.952 197.491C247.004 197.061 248.132 196.847 249.268 196.86C250.767 196.877 252.24 197.246 253.569 197.938L252.056 201.389C251.189 200.946 250.24 200.687 249.268 200.627C248.628 200.622 247.993 200.747 247.401 200.994C246.81 201.241 246.275 201.605 245.828 202.064C245.373 202.514 245.014 203.053 244.774 203.646C244.535 204.24 244.419 204.876 244.434 205.516L244.445 205.494Z" fill="#BFA274"/>
<path d="M231.071 5.46497C230.351 3.78425 229.79 1.90345 228.022 0.710938C224.956 2.4877 221.955 4.21644 218.922 5.97719C219.434 6.9456 219.842 7.61789 220.162 8.3302C222.195 12.7961 222.971 17.4461 220.426 21.84C216.489 28.6189 210.158 32.3325 202.859 34.6775C202.555 33.8611 202.307 33.3169 202.155 32.7406C200.05 25.0734 195.032 20.0152 187.932 16.8058C181.178 13.7565 174.023 13.3323 166.827 14.0366C162.451 14.4089 158.164 15.4901 154.134 17.238C155.102 20.0472 156.103 22.7444 156.943 25.4895C157.407 26.9942 158.256 27.3703 159.64 26.9302C162.781 25.9898 166.006 25.3546 169.268 25.0333C175.215 24.337 180.825 25.2254 185.892 28.3708C189.093 30.3556 191.286 33.2609 191.598 37.1345C190.606 38.0949 189.557 37.8548 188.589 37.8708C184.723 37.9349 180.897 38.295 176.992 38.0549C172.322 37.7938 167.67 37.2728 163.058 36.4942C152.189 34.6134 141.569 31.6282 130.924 28.7629C116.462 24.8653 102.144 20.3914 87.0733 19.0788C81.4308 18.5136 75.7349 18.8214 70.1861 19.9912C66.9607 20.7035 63.6313 21.5759 60.8701 23.9289C62.575 27.1153 64.4478 30.2089 66.4805 33.1968C70.002 31.4761 73.2274 30.1315 76.949 29.9474C83.2237 29.6513 88.9701 31.26 94.5405 33.8931C103.632 38.191 111.5 44.3216 119.407 50.3962C126.754 56.0386 133.837 62.0332 141.449 67.3314C144.162 69.2202 146.867 71.1331 149.916 73.278C141.461 75.9098 132.745 77.6165 123.921 78.3681C124.561 82.2898 126.154 85.6993 127.267 89.3569H195.76C196.832 85.7713 198.329 82.4339 198.937 78.5522C195.096 77.944 191.358 77.5518 187.724 76.7355C184.155 75.9271 180.521 75.1748 177.04 73.4621C177.331 73.2061 177.636 72.9657 177.952 72.7417C187.804 66.5551 196.536 59.304 201.098 48.1392C201.298 47.6419 201.622 47.2034 202.037 46.8647C202.453 46.526 202.948 46.2981 203.475 46.2024C211.991 43.6253 219.658 39.6076 225.893 33.0368C233.272 25.2574 235.313 15.2772 231.103 5.44896L231.071 5.46497ZM179.041 58.5437C174.807 61.8748 170.226 64.7405 165.379 67.0913C164.834 67.4106 164.213 67.5762 163.582 67.5706C162.95 67.5649 162.332 67.3882 161.793 67.0593C154.158 62.9378 146.872 58.2001 140.008 52.8933C134.045 48.3953 128.275 43.6413 122.432 38.9833C122.143 38.6786 121.88 38.3492 121.648 37.9989C143.401 43.7614 164.691 50.3722 187.444 49.5638C185.103 52.9543 182.274 55.9803 179.049 58.5437H179.041Z" fill="#BFA274"/>
<path d="M190.925 66.6816C191.276 67.6789 191.71 68.6453 192.221 69.5709C201.793 69.3628 211.387 69.1574 221.002 68.9546V68.8105C211.061 68.1062 201.113 67.41 190.925 66.6896V66.6816Z" fill="#475669"/>
<path d="M196.527 59.4824C196.879 60.4797 197.313 61.4461 197.824 62.3717C207.396 62.1636 216.989 61.9581 226.604 61.7554V61.6113C216.664 60.907 206.716 60.2107 196.527 59.4904V59.4824Z" fill="#475669"/>
<path d="M202.931 52.2773C203.282 53.2746 203.716 54.241 204.227 55.1666C213.799 54.9585 223.393 54.7531 233.008 54.5503V54.4063C223.067 53.702 213.119 53.0057 202.931 52.2853V52.2773Z" fill="#475669"/>
<path d="M175.688 103.779C179.003 103.779 181.691 101.091 181.691 97.776C181.691 94.4609 179.003 91.7734 175.688 91.7734C172.373 91.7734 169.686 94.4609 169.686 97.776C169.686 101.091 172.373 103.779 175.688 103.779Z" fill="#BFA274"/>
<path d="M148.476 103.779C151.791 103.779 154.479 101.091 154.479 97.776C154.479 94.4609 151.791 91.7734 148.476 91.7734C145.161 91.7734 142.474 94.4609 142.474 97.776C142.474 101.091 145.161 103.779 148.476 103.779Z" fill="#BFA274"/>
</svg>
