<svg width="227" height="46" viewBox="0 0 227 46" fill="none" xmlns="http://www.w3.org/2000/svg">
<path d="M86.0775 19.9002L84.749 24.3423H80.6006L86.1847 7.65527H91.4752L97.3203 24.3423H92.9527L91.4798 19.9002H86.0775ZM90.8226 16.9916L89.6247 13.4258C89.2937 12.447 88.9768 11.3376 88.6878 10.4054H88.6365C88.3708 11.3469 88.1144 12.4563 87.8161 13.4305L86.6881 16.9916H90.8179H90.8226Z" fill="#1A232B"/>
<path d="M102.154 7.66016H106.102V21.0471H113.532V24.3472H102.154V7.66016Z" fill="#1A232B"/>
<path d="M122.776 19.9002L121.447 24.3423H117.294L122.878 7.65527H128.169L134.014 24.3423H129.646L128.173 19.9002H122.776ZM127.521 16.9916L126.323 13.4258C125.992 12.447 125.675 11.3376 125.386 10.4054H125.335C125.069 11.3469 124.812 12.4563 124.514 13.4305L123.386 16.9916H127.516H127.521Z" fill="#1A232B"/>
<path d="M143.127 19.9002L141.799 24.3423H137.646L143.23 7.65527H148.52L154.365 24.3423H149.998L148.525 19.9002H143.127ZM147.872 16.9916L146.674 13.4258C146.343 12.447 146.026 11.3376 145.737 10.4054H145.686C145.42 11.3469 145.164 12.4563 144.866 13.4305L143.738 16.9916H147.868H147.872Z" fill="#1A232B"/>
<path d="M159.202 7.87946C161.086 7.61982 162.987 7.49521 164.889 7.50657C168.408 7.50657 170.678 8.12185 172.454 9.39902C174.29 10.6948 175.493 12.6712 175.493 15.5285C175.493 18.6655 174.239 20.8143 172.584 22.1847C170.622 23.7741 167.588 24.5292 164.022 24.5292C162.411 24.5511 160.801 24.4623 159.202 24.2636V7.87946ZM163.15 21.4156C163.668 21.4756 164.19 21.499 164.712 21.4855C168.744 21.5228 171.289 19.5185 171.289 15.7336C171.298 12.2563 168.888 10.5177 165.22 10.5177C164.526 10.506 163.833 10.5606 163.15 10.6808V21.4156Z" fill="#1A232B"/>
<path d="M180.616 7.87946C182.5 7.61982 184.401 7.49521 186.303 7.50657C189.822 7.50657 192.092 8.12185 193.868 9.39902C195.704 10.6948 196.907 12.6712 196.907 15.5285C196.907 18.6655 195.653 20.8143 193.998 22.1847C192.036 23.7741 189.002 24.5292 185.436 24.5292C183.825 24.5511 182.215 24.4623 180.616 24.2636V7.87946ZM184.564 21.4156C185.082 21.4756 185.604 21.499 186.126 21.4855C190.158 21.5228 192.703 19.5185 192.703 15.7336C192.712 12.2563 190.302 10.5177 186.634 10.5177C185.94 10.506 185.247 10.5606 184.564 10.6808V21.4156Z" fill="#1A232B"/>
<path d="M205.983 7.66016V24.3472H202.035V7.66016H205.983Z" fill="#1A232B"/>
<path d="M211.888 24.3472V7.66016H216.754L220.516 13.6405C221.681 15.5622 222.697 17.5709 223.555 19.6487L223.625 19.6394C223.392 17.4068 223.294 15.1623 223.331 12.918V7.66016H226.999V24.3472H222.72L218.796 17.8961C217.586 15.894 216.486 13.8276 215.5 11.7061L215.407 11.7154C215.533 14.1066 215.556 16.3952 215.556 18.9076V24.3472H211.888Z" fill="#1A232B"/>
<path d="M129.567 34.398V41.0495H131.213V42.6623H129.525C129.476 43.137 129.324 43.5954 129.079 44.0052C128.835 44.415 128.503 44.7664 128.108 45.0348C127.267 45.6007 126.27 45.8907 125.256 45.8645C124.203 45.8806 123.178 45.5295 122.357 44.8717C121.942 44.5402 121.613 44.1151 121.395 43.6313C121.177 43.1475 121.077 42.6189 121.103 42.0889V35.9082H122.725V42.0889C122.712 42.3967 122.776 42.7027 122.91 42.98C123.044 43.2572 123.245 43.4971 123.494 43.6784C124.035 44.0525 124.678 44.2526 125.336 44.2517C125.994 44.2509 126.636 44.0493 127.176 43.6737C127.428 43.494 127.63 43.2547 127.766 42.9772C127.902 42.6998 127.967 42.393 127.955 42.0843V34.3933H129.577L129.567 34.398ZM124.585 32.347C124.504 32.1467 124.504 31.9228 124.585 31.7224C124.628 31.6256 124.688 31.5372 124.762 31.4614C124.835 31.3848 124.924 31.3245 125.023 31.2843C125.151 31.2382 125.287 31.2177 125.424 31.2237C125.517 31.228 125.608 31.2517 125.692 31.2935C125.775 31.3352 125.849 31.394 125.908 31.4661C126.058 31.6176 126.142 31.8219 126.142 32.0347C126.142 32.2475 126.058 32.4518 125.908 32.6034C125.847 32.6723 125.773 32.7284 125.689 32.7684C125.606 32.8084 125.516 32.8315 125.424 32.8365C125.287 32.8425 125.151 32.8219 125.023 32.7759C124.827 32.6948 124.67 32.5411 124.585 32.347Z" fill="#BFA274"/>
<path d="M130.513 41.0488H134.172V42.6616H130.513V41.0488Z" fill="#BFA274"/>
<path d="M133.455 41.0488H137.114V42.6616H133.455V41.0488Z" fill="#BFA274"/>
<path d="M140.731 34.3975V40.0095C140.736 40.3573 140.671 40.7025 140.54 41.0245C140.409 41.3466 140.213 41.6387 139.966 41.8833C139.728 42.1342 139.44 42.3328 139.12 42.4668C138.801 42.6008 138.457 42.6672 138.111 42.6618H136.382V41.049H138.111C138.247 41.0508 138.381 41.0248 138.506 40.9727C138.631 40.9206 138.744 40.8434 138.838 40.746C138.936 40.6503 139.014 40.5357 139.066 40.409C139.118 40.2824 139.144 40.1465 139.141 40.0095V34.3975H140.726H140.731ZM136.787 45.3839C136.707 45.1835 136.707 44.9597 136.787 44.7593C136.829 44.6615 136.889 44.5728 136.964 44.4983C137.039 44.4243 137.125 44.3643 137.221 44.3211C137.32 44.2792 137.426 44.2585 137.533 44.2605C137.64 44.259 137.747 44.2796 137.845 44.3211C138.042 44.4059 138.199 44.5627 138.284 44.7593C138.364 44.9597 138.364 45.1835 138.284 45.3839C138.243 45.4809 138.183 45.5682 138.106 45.6403C138.031 45.7129 137.942 45.7713 137.845 45.8127C137.645 45.8935 137.421 45.8935 137.221 45.8127C137.125 45.7724 137.038 45.7138 136.964 45.6403C136.89 45.567 136.829 45.4799 136.787 45.3839ZM139.174 45.3839C139.093 45.1835 139.093 44.9597 139.174 44.7593C139.217 44.6625 139.277 44.5741 139.351 44.4983C139.425 44.4217 139.514 44.3614 139.612 44.3211C139.74 44.2751 139.877 44.2545 140.013 44.2605C140.106 44.2648 140.197 44.2886 140.281 44.3304C140.364 44.3721 140.438 44.4309 140.498 44.5029C140.647 44.6545 140.731 44.8588 140.731 45.0716C140.731 45.2844 140.647 45.4887 140.498 45.6403C140.436 45.7092 140.362 45.7653 140.279 45.8053C140.195 45.8453 140.105 45.8684 140.013 45.8733C139.877 45.8793 139.74 45.8588 139.612 45.8127C139.416 45.7317 139.259 45.578 139.174 45.3839Z" fill="#BFA274"/>
<path d="M143.033 34.3975C145.877 34.3975 147.511 34.8822 147.937 35.8518C148.305 36.5975 148.522 37.4085 148.575 38.2383V41.049H150.211V42.6618H142.581V41.049H146.953V38.2336C146.953 36.7514 145.647 36.0102 143.033 36.0102V34.3975Z" fill="#BFA274"/>
<path d="M149.494 41.0488H153.153V42.6616H149.494V41.0488Z" fill="#BFA274"/>
<path d="M155.857 31.1904V40.0141C155.855 40.7163 155.574 41.389 155.077 41.8851C154.58 42.3812 153.907 42.6604 153.205 42.6616H152.445V41.0489H153.2C153.337 41.0507 153.473 41.0248 153.6 40.9727C153.726 40.9206 153.841 40.8435 153.937 40.7459C154.035 40.6524 154.113 40.5395 154.165 40.4143C154.217 40.2891 154.243 40.1543 154.24 40.0187V31.1951H155.862L155.857 31.1904Z" fill="#BFA274"/>
<path d="M159.259 31.1904V42.657H157.637V31.1904H159.259Z" fill="#BFA274"/>
<path d="M165.67 41.0485C165.232 40.264 165.009 39.3783 165.022 38.4802C165.006 37.58 165.319 36.7049 165.903 36.0191C166.49 35.3246 167.39 34.961 168.601 34.9424H170.326V36.5552H168.648C168.369 36.5598 168.094 36.6209 167.839 36.7346C167.585 36.8484 167.356 37.0125 167.166 37.217C166.818 37.6167 166.632 38.1321 166.644 38.662C166.643 39.2279 166.782 39.7851 167.049 40.2841C167.32 40.7968 167.637 41.0532 168.01 41.0532H171.804V42.666H163.814V41.0532H165.674L165.67 41.0485Z" fill="#BFA274"/>
<path d="M176.743 34.3973V41.0489H180.3V31.1904H181.922V41.0489H183.567V42.6616H173.602V41.0489H175.126V34.3973H176.748H176.743Z" fill="#BFA274"/>
<path d="M182.85 41.0488H186.509V42.6616H182.85V41.0488Z" fill="#BFA274"/>
<path d="M189.059 38.0891V41.049H193.85V42.6618H185.791V41.049H187.436V38.0891C187.43 37.6026 187.52 37.1197 187.703 36.6688C187.886 36.2178 188.157 35.8081 188.501 35.4636C188.844 35.1191 189.253 34.8469 189.704 34.663C190.154 34.4791 190.637 34.3872 191.123 34.3928C191.765 34.4002 192.396 34.5583 192.965 34.8543L192.317 36.3319C191.946 36.1421 191.539 36.031 191.123 36.0056C190.849 36.0035 190.577 36.057 190.324 36.1627C190.071 36.2685 189.842 36.4243 189.65 36.6209C189.456 36.8135 189.302 37.0439 189.2 37.298C189.097 37.5521 189.047 37.8245 189.054 38.0985L189.059 38.0891Z" fill="#BFA274"/>
<path d="M72.8634 2.51373C72.5551 1.79421 72.3152 0.989032 71.558 0.478516C70.2458 1.23915 68.9609 1.97923 67.6623 2.73301C67.8816 3.14759 68.0564 3.4354 68.1934 3.74034C69.0637 5.65221 69.396 7.64288 68.3065 9.52391C66.6207 12.426 63.9105 14.0158 60.7858 15.0197C60.6556 14.6702 60.5494 14.4372 60.4843 14.1905C59.5831 10.9081 57.4349 8.74272 54.3957 7.36878C51.504 6.06336 48.4409 5.88177 45.3606 6.18328C43.487 6.34264 41.6517 6.80551 39.9265 7.5538C40.3411 8.75642 40.7694 9.91108 41.1292 11.0863C41.3279 11.7304 41.6911 11.8915 42.2838 11.703C43.6285 11.3005 45.0088 11.0285 46.4056 10.891C48.9514 10.5929 51.3532 10.9732 53.522 12.3198C54.8926 13.1695 55.8314 14.4132 55.965 16.0715C55.5401 16.4827 55.0913 16.3799 54.6767 16.3868C53.0218 16.4142 51.384 16.5684 49.712 16.4656C47.7128 16.3538 45.7213 16.1307 43.7468 15.7974C39.0939 14.9923 34.5473 13.7143 29.9903 12.4877C23.799 10.819 17.6694 8.90376 11.2177 8.34185C8.80209 8.0999 6.36365 8.23165 3.9882 8.73244C2.6074 9.03738 1.18207 9.41085 0 10.4182C0.729865 11.7823 1.5316 13.1067 2.40183 14.3858C3.90939 13.6492 5.29019 13.0735 6.88341 12.9947C9.56962 12.868 12.0297 13.5567 14.4144 14.6839C18.3067 16.5238 21.6747 19.1484 25.0599 21.7489C28.2052 24.1644 31.2375 26.7307 34.4959 28.9989C35.6574 29.8075 36.8155 30.6264 38.1209 31.5447C34.5011 32.6713 30.7697 33.402 26.9923 33.7238C27.2664 35.4027 27.9482 36.8623 28.4245 38.4281H57.7467C58.2058 36.8931 58.8465 35.4643 59.1069 33.8026C57.4623 33.5422 55.8622 33.3743 54.3067 33.0248C52.7785 32.6788 51.223 32.3567 49.7326 31.6235C49.8573 31.5139 49.9877 31.411 50.1232 31.3151C54.3409 28.6666 58.079 25.5624 60.032 20.7827C60.1177 20.5698 60.2561 20.382 60.434 20.2371C60.6119 20.0921 60.8237 19.9945 61.0496 19.9535C64.6952 18.8503 67.9775 17.1303 70.6466 14.3173C73.8057 10.9869 74.6794 6.71436 72.8771 2.50688L72.8634 2.51373ZM50.5891 25.2369C48.7765 26.6629 46.8157 27.8897 44.7405 28.8961C44.5073 29.0328 44.2414 29.1037 43.9711 29.1013C43.7008 29.0989 43.4362 29.0233 43.2055 28.8824C39.9369 27.118 36.8178 25.0898 33.8791 22.8179C31.3265 20.8923 28.8562 18.8571 26.355 16.863C26.231 16.7326 26.1187 16.5916 26.0192 16.4416C35.3319 18.9085 44.4458 21.7386 54.1867 21.3926C53.1846 22.8441 51.9734 24.1395 50.5926 25.2369H50.5891Z" fill="#BFA274"/>
<path d="M55.6768 28.7217C55.8273 29.1486 56.0129 29.5623 56.2318 29.9586C60.3297 29.8695 64.4366 29.7815 68.5527 29.6947V29.6331C64.2973 29.3316 60.0384 29.0335 55.6768 28.7251V28.7217Z" fill="#475669"/>
<path d="M58.0752 25.6377C58.2257 26.0646 58.4113 26.4783 58.6303 26.8746C62.7281 26.7855 66.8351 26.6976 70.9512 26.6108V26.5491C66.6957 26.2476 62.4369 25.9495 58.0752 25.6411V25.6377Z" fill="#475669"/>
<path d="M60.8164 22.5537C60.9669 22.9806 61.1526 23.3944 61.3715 23.7906C65.4693 23.7015 69.5763 23.6136 73.6924 23.5268V23.4651C69.4369 23.1636 65.1781 22.8655 60.8164 22.5571V22.5537Z" fill="#475669"/>
<path d="M49.1537 44.6023C50.5729 44.6023 51.7234 43.4518 51.7234 42.0326C51.7234 40.6134 50.5729 39.4629 49.1537 39.4629C47.7345 39.4629 46.584 40.6134 46.584 42.0326C46.584 43.4518 47.7345 44.6023 49.1537 44.6023Z" fill="#BFA274"/>
<path d="M37.5043 44.6023C38.9235 44.6023 40.074 43.4518 40.074 42.0326C40.074 40.6134 38.9235 39.4629 37.5043 39.4629C36.0851 39.4629 34.9346 40.6134 34.9346 42.0326C34.9346 43.4518 36.0851 44.6023 37.5043 44.6023Z" fill="#BFA274"/>
</svg>
