<svg width="22" height="22" viewBox="0 0 22 22" fill="none" xmlns="http://www.w3.org/2000/svg">
<path d="M7.33333 2.75H3.66667C3.42355 2.75 3.19039 2.84658 3.01849 3.01849C2.84658 3.19039 2.75 3.42355 2.75 3.66667V7.33333M7.33333 19.25H3.66667C3.42355 19.25 3.19039 19.1534 3.01849 18.9815C2.84658 18.8096 2.75 18.5764 2.75 18.3333V14.6667M14.6667 19.25H18.3333C18.5764 19.25 18.8096 19.1534 18.9815 18.9815C19.1534 18.8096 19.25 18.5764 19.25 18.3333V14.6667M14.6667 2.75H18.3333C18.5764 2.75 18.8096 2.84658 18.9815 3.01849C19.1534 3.19039 19.25 3.42355 19.25 3.66667V7.33333M14.6667 11H7.33333M11 14.6667V7.33333" stroke="#BFA274" stroke-width="2" stroke-linecap="round" stroke-linejoin="round"/>
</svg>
