<svg width="20" height="21" viewBox="0 0 20 21" fill="none" xmlns="http://www.w3.org/2000/svg">
<path d="M10.8383 16.747C10.9502 16.864 11.0389 17.003 11.0995 17.1561C11.1601 17.3092 11.1912 17.4734 11.1912 17.6391C11.1912 17.8049 11.1601 17.9691 11.0995 18.1222C11.0389 18.2753 10.9502 18.4143 10.8383 18.5313L10.2444 19.1548C9.11901 20.3363 7.59262 21 6.00105 21C4.40947 21 2.88308 20.3363 1.75767 19.1548C0.632251 17.9734 0 16.371 0 14.7002C0 13.0293 0.632251 11.427 1.75767 10.2455L4.16931 7.71483C5.25064 6.57686 6.70552 5.91599 8.23594 5.86759C9.76637 5.81919 11.2565 6.38693 12.4011 7.45452C12.5193 7.56479 12.6156 7.69842 12.6846 7.84777C12.7536 7.99712 12.7939 8.15928 12.8031 8.32497C12.8124 8.49067 12.7905 8.65666 12.7387 8.81347C12.6869 8.97028 12.6061 9.11484 12.5011 9.2389C12.3961 9.36296 12.2688 9.46408 12.1265 9.53649C11.9842 9.60891 11.8298 9.65119 11.6719 9.66094C11.5141 9.67069 11.356 9.6477 11.2066 9.5933C11.0572 9.53889 10.9195 9.45414 10.8013 9.34386C10.115 8.70393 9.22161 8.36348 8.30403 8.39216C7.38644 8.42085 6.51396 8.81649 5.86507 9.49816L3.45542 12.0257C2.78028 12.7344 2.40098 13.6957 2.40098 14.6981C2.40098 15.7004 2.78028 16.6617 3.45542 17.3704C4.13056 18.0792 5.04625 18.4774 6.00105 18.4774C6.95584 18.4774 7.87153 18.0792 8.54668 17.3704L9.14059 16.747C9.25202 16.6298 9.38435 16.5369 9.53 16.4736C9.67566 16.4102 9.83179 16.3775 9.98947 16.3775C10.1471 16.3775 10.3033 16.4102 10.4489 16.4736C10.5946 16.5369 10.7269 16.6298 10.8383 16.747ZM18.2453 1.84211C17.1189 0.662477 15.5929 0 14.0019 0C12.4109 0 10.8848 0.662477 9.7585 1.84211L9.16459 2.46559C8.93919 2.70222 8.81256 3.02315 8.81256 3.35778C8.81256 3.69242 8.93919 4.01335 9.16459 4.24998C9.38999 4.4866 9.6957 4.61953 10.0145 4.61953C10.3332 4.61953 10.6389 4.4866 10.8643 4.24998L11.4583 3.62649C12.1334 2.91773 13.0491 2.51956 14.0039 2.51956C14.9587 2.51956 15.8744 2.91773 16.5495 3.62649C17.2247 4.33525 17.6039 5.29653 17.6039 6.29887C17.6039 7.3012 17.2247 8.26248 16.5495 8.97124L14.1389 11.503C13.4894 12.1844 12.6164 12.5794 11.6986 12.6073C10.7808 12.6352 9.88752 12.2939 9.20158 11.6531C9.08341 11.5428 8.9457 11.458 8.79633 11.4036C8.64695 11.3492 8.48883 11.3262 8.331 11.336C8.17316 11.3457 8.0187 11.388 7.87643 11.4604C7.73416 11.5329 7.60687 11.634 7.50183 11.758C7.39679 11.8821 7.31605 12.0266 7.26423 12.1835C7.2124 12.3403 7.19051 12.5063 7.19979 12.672C7.20908 12.8377 7.24936 12.9998 7.31834 13.1492C7.38732 13.2985 7.48364 13.4321 7.60181 13.5424C8.74563 14.6098 10.2348 15.1779 11.7645 15.1304C13.2942 15.083 14.7488 14.4237 15.8306 13.2874L18.2423 10.7567C19.3673 9.57455 19.9994 7.97208 20 6.30109C20.0006 4.6301 19.3695 3.02717 18.2453 1.84421V1.84211Z" fill="#828282"/>
</svg>
