<svg width="17" height="17" viewBox="0 0 17 17" fill="none" xmlns="http://www.w3.org/2000/svg">
<g clip-path="url(#clip0_2646_10753)">
<path d="M12.7917 8.49631L15.1483 6.19098C16.4483 4.89098 16.4483 2.77631 15.1483 1.47698C14.519 0.847643 13.6817 0.500977 12.7917 0.500977C11.9017 0.500977 11.0643 0.847643 10.4343 1.47698C9.135 2.77698 9.135 4.89164 10.4397 6.19631L12.7917 8.49631ZM11.377 2.41964C11.755 2.04164 12.257 1.83364 12.7917 1.83364C13.3263 1.83364 13.8283 2.04164 14.2057 2.41898C14.9857 3.19898 14.9857 4.46764 14.211 5.24231L12.7917 6.63031L11.377 5.24764C10.5977 4.46764 10.5977 3.19964 11.377 2.41964ZM2.79167 15.167C2.79167 15.9036 2.195 16.5003 1.45833 16.5003C0.721667 16.5003 0.125 15.9036 0.125 15.167C0.125 14.4303 0.721667 13.8336 1.45833 13.8336C2.195 13.8336 2.79167 14.4303 2.79167 15.167ZM8.45833 9.83364C9.195 9.83364 9.79167 10.4303 9.79167 11.167C9.79167 11.9036 9.195 12.5003 8.45833 12.5003C7.72167 12.5003 7.125 11.9036 7.125 11.167C7.125 10.4303 7.72167 9.83364 8.45833 9.83364ZM16.125 13.167C16.125 14.6376 14.929 15.8336 13.4583 15.8336H4.041C4.09567 15.6203 4.125 15.397 4.125 15.167C4.125 14.937 4.09567 14.7136 4.041 14.5003H13.4583C14.1937 14.5003 14.7917 13.9023 14.7917 13.167C14.7917 12.4316 14.1937 11.8336 13.4583 11.8336H11.041C11.0957 11.6203 11.125 11.397 11.125 11.167C11.125 10.937 11.0957 10.7136 11.041 10.5003H13.4583C14.929 10.5003 16.125 11.6963 16.125 13.167ZM1.45833 9.16698C1.45833 7.69631 2.65433 6.50031 4.125 6.50031H8.965C9.123 6.72831 9.30367 6.94564 9.50767 7.14898L10.2077 7.83364H4.125C3.38967 7.83364 2.79167 8.43164 2.79167 9.16698C2.79167 9.90231 3.38967 10.5003 4.125 10.5003H5.87567C5.821 10.7136 5.79167 10.937 5.79167 11.167C5.79167 11.397 5.821 11.6203 5.87567 11.8336H4.125C2.65433 11.8336 1.45833 10.6376 1.45833 9.16698Z" fill="white"/>
<path d="M12.7926 4.35775C13.1608 4.35775 13.4593 4.05927 13.4593 3.69108C13.4593 3.32289 13.1608 3.02441 12.7926 3.02441C12.4245 3.02441 12.126 3.32289 12.126 3.69108C12.126 4.05927 12.4245 4.35775 12.7926 4.35775Z" fill="white"/>
</g>
<defs>
<clipPath id="clip0_2646_10753">
<rect width="16" height="16" fill="white" transform="translate(0.125 0.5)"/>
</clipPath>
</defs>
</svg>
