<svg width="15" height="15" viewBox="0 0 15 15" fill="none" xmlns="http://www.w3.org/2000/svg">
<path d="M7.63281 0.59375C7.99937 0.59375 8.29688 0.89125 8.29688 1.25781V6.96875H14.0078C14.1839 6.96875 14.3528 7.03871 14.4774 7.16325C14.6019 7.28779 14.6719 7.45669 14.6719 7.63281C14.6719 7.80893 14.6019 7.97784 14.4774 8.10238C14.3528 8.22691 14.1839 8.29688 14.0078 8.29688H8.29688V14.0078C8.29688 14.1839 8.22691 14.3528 8.10238 14.4774C7.97784 14.6019 7.80893 14.6719 7.63281 14.6719C7.45669 14.6719 7.28779 14.6019 7.16325 14.4774C7.03871 14.3528 6.96875 14.1839 6.96875 14.0078V8.29688H1.25781C1.08169 8.29688 0.912785 8.22691 0.788249 8.10238C0.663714 7.97784 0.59375 7.80893 0.59375 7.63281C0.59375 7.45669 0.663714 7.28779 0.788249 7.16325C0.912785 7.03871 1.08169 6.96875 1.25781 6.96875H6.96875V1.25781C6.96875 0.89125 7.26625 0.59375 7.63281 0.59375Z" fill="#BFA274"/>
</svg>
