<svg width="14" height="14" viewBox="0 0 14 14" fill="none" xmlns="http://www.w3.org/2000/svg">
<path d="M7 0C5.61553 0 4.26216 0.410543 3.11101 1.17971C1.95987 1.94888 1.06266 3.04213 0.532846 4.32122C0.003033 5.6003 -0.13559 7.00776 0.134506 8.36563C0.404603 9.7235 1.07129 10.9708 2.05026 11.9497C3.02922 12.9287 4.2765 13.5954 5.63437 13.8655C6.99224 14.1356 8.3997 13.997 9.67879 13.4672C10.9579 12.9373 12.0511 12.0401 12.8203 10.889C13.5895 9.73785 14 8.38447 14 7C14 5.14348 13.2625 3.36301 11.9497 2.05025C10.637 0.737498 8.85652 0 7 0ZM5.83334 3.00417C5.83334 2.77342 5.90176 2.54786 6.02995 2.356C6.15815 2.16414 6.34036 2.01461 6.55354 1.92631C6.76672 1.838 7.0013 1.8149 7.22761 1.85992C7.45392 1.90493 7.6618 2.01605 7.82496 2.17921C7.98812 2.34237 8.09923 2.55025 8.14425 2.77656C8.18927 3.00287 8.16616 3.23745 8.07786 3.45063C7.98956 3.66381 7.84002 3.84602 7.64817 3.97421C7.45631 4.10241 7.23075 4.17083 7 4.17083C6.84196 4.17874 6.68395 4.15442 6.5356 4.09935C6.38725 4.04427 6.25166 3.95959 6.13707 3.85045C6.02248 3.74132 5.93129 3.61002 5.86904 3.46453C5.8068 3.31904 5.7748 3.16241 5.775 3.00417H5.83334ZM9.91667 10.5C9.91667 10.6547 9.85521 10.8031 9.74581 10.9125C9.63642 11.0219 9.48804 11.0833 9.33333 11.0833H5.25C5.09529 11.0833 4.94692 11.0219 4.83752 10.9125C4.72813 10.8031 4.66667 10.6547 4.66667 10.5C4.66667 10.3453 4.72813 10.1969 4.83752 10.0875C4.94692 9.97812 5.09529 9.91667 5.25 9.91667H6.41667V6.41667H5.83334C5.67863 6.41667 5.53025 6.35521 5.42086 6.24581C5.31146 6.13642 5.25 5.98804 5.25 5.83333C5.25 5.67862 5.31146 5.53025 5.42086 5.42085C5.53025 5.31146 5.67863 5.25 5.83334 5.25H8.16667V9.91667H9.33333C9.48804 9.91667 9.63642 9.97812 9.74581 10.0875C9.85521 10.1969 9.91667 10.3453 9.91667 10.5Z" fill="#BFA274"/>
</svg>
