<svg width="19" height="19" viewBox="0 0 19 19" fill="none" xmlns="http://www.w3.org/2000/svg">
<g clip-path="url(#clip0_3566_12972)">
<path d="M16.5635 5H14.3135C14.3135 2.51825 12.2952 0.5 9.81348 0.5C7.33173 0.5 5.31348 2.51825 5.31348 5H3.06348C1.82298 5 0.813477 6.0095 0.813477 7.25V14.75C0.813477 16.8177 2.49573 18.5 4.56348 18.5H5.31348C5.72823 18.5 6.06348 18.1647 6.06348 17.75C6.06348 17.3353 5.72823 17 5.31348 17H4.56348C3.32298 17 2.31348 15.9905 2.31348 14.75V7.25C2.31348 6.83675 2.64948 6.5 3.06348 6.5H5.31348V8C5.31348 8.414 5.64873 8.75 6.06348 8.75C6.47823 8.75 6.81348 8.414 6.81348 8V6.5H12.8135V8C12.8135 8.414 13.1487 8.75 13.5635 8.75C13.9782 8.75 14.3135 8.414 14.3135 8V6.5H16.5635C16.9775 6.5 17.3135 6.83675 17.3135 7.25V14.75C17.3135 15.9905 16.304 17 15.0635 17H14.3135C13.8987 17 13.5635 17.3353 13.5635 17.75C13.5635 18.1647 13.8987 18.5 14.3135 18.5H15.0635C17.1312 18.5 18.8135 16.8177 18.8135 14.75V7.25C18.8135 6.0095 17.804 5 16.5635 5ZM6.81348 5C6.81348 3.3455 8.15898 2 9.81348 2C11.468 2 12.8135 3.3455 12.8135 5H6.81348ZM9.81423 10.2523H9.81048C8.80923 10.2523 7.86873 10.6423 7.16223 11.3503C5.70048 12.812 5.70048 15.1917 7.16823 16.6595L8.50398 17.966C8.86473 18.3193 9.33873 18.4955 9.81348 18.4955C10.2882 18.4955 10.7622 18.3193 11.123 17.966L12.4647 16.6535C13.9265 15.1918 13.9265 12.812 12.4647 11.3503C11.7567 10.6423 10.8155 10.2523 9.81423 10.2523ZM11.4102 15.587L10.0745 16.8935C9.92823 17.0368 9.69948 17.0368 9.55323 16.8935L8.22348 15.593C7.34598 14.7155 7.34598 13.2882 8.22348 12.4107C8.64648 11.9862 9.21048 11.7523 9.81123 11.7523H9.81348C10.415 11.7523 10.9797 11.9862 11.4042 12.4107C12.2817 13.2882 12.2817 14.7155 11.4102 15.587Z" fill="#7A808A"/>
</g>
<defs>
<clipPath id="clip0_3566_12972">
<rect width="18" height="18" fill="white" transform="translate(0.813477 0.5)"/>
</clipPath>
</defs>
</svg>
