<svg width="19" height="19" viewBox="0 0 19 19" fill="none" xmlns="http://www.w3.org/2000/svg">
<g clip-path="url(#clip0_3566_12959)">
<path d="M15.8135 8H15.0635V6.5C15.0635 4.8455 13.718 3.5 12.0635 3.5H11.2925C11.105 1.81475 9.67248 0.5 7.93848 0.5C6.20448 0.5 4.77123 1.81475 4.58448 3.5H3.81348C2.15898 3.5 0.813477 4.8455 0.813477 6.5V11C0.813477 13.0677 2.49573 14.75 4.56348 14.75H5.31348C5.31348 16.8177 6.99573 18.5 9.06348 18.5H15.0635C17.1312 18.5 18.8135 16.8177 18.8135 14.75V11C18.8135 9.3455 17.468 8 15.8135 8ZM7.93848 2C8.84373 2 9.60123 2.645 9.77598 3.5H6.10098C6.27498 2.645 7.03248 2 7.93848 2ZM4.56348 13.25C3.32298 13.25 2.31348 12.2405 2.31348 11V6.5C2.31348 5.67275 2.98623 5 3.81348 5H4.56348V6.5C4.56348 6.91475 4.89948 7.25 5.31348 7.25C5.72748 7.25 6.06348 6.91475 6.06348 6.5V5H9.81348V6.5C9.81348 6.91475 10.1495 7.25 10.5635 7.25C10.9775 7.25 11.3135 6.91475 11.3135 6.5V5H12.0635C12.8907 5 13.5635 5.67275 13.5635 6.5V8H8.31348C6.65898 8 5.31348 9.3455 5.31348 11V13.25H4.56348ZM17.3135 14.75C17.3135 15.9905 16.304 17 15.0635 17H9.06348C7.82298 17 6.81348 15.9905 6.81348 14.75V11C6.81348 10.1727 7.48623 9.5 8.31348 9.5H15.8135C16.6407 9.5 17.3135 10.1727 17.3135 11V14.75ZM15.0635 11.75V12.5C15.0635 14.1545 13.718 15.5 12.0635 15.5C10.409 15.5 9.06348 14.1545 9.06348 12.5V11.75C9.06348 11.3352 9.39948 11 9.81348 11C10.2275 11 10.5635 11.3352 10.5635 11.75V12.5C10.5635 13.3273 11.2362 14 12.0635 14C12.8907 14 13.5635 13.3273 13.5635 12.5V11.75C13.5635 11.3352 13.8995 11 14.3135 11C14.7275 11 15.0635 11.3352 15.0635 11.75Z" fill="#7A808A"/>
</g>
<defs>
<clipPath id="clip0_3566_12959">
<rect width="18" height="18" fill="white" transform="translate(0.813477 0.5)"/>
</clipPath>
</defs>
</svg>
