<svg width="18" height="19" viewBox="0 0 18 19" fill="none" xmlns="http://www.w3.org/2000/svg">
<g clip-path="url(#clip0_3566_12991)">
<path d="M17.7073 8.62764L16.4188 5.93364C16.2553 5.59239 15.8623 5.42514 15.5045 5.54589L8.99678 7.71789L2.48003 5.54664C2.12228 5.42739 1.72928 5.59314 1.56578 5.93514L0.32678 8.53989C-0.0309698 9.13389 -0.0984698 9.84714 0.14153 10.4966C0.37403 11.1266 0.86453 11.6149 1.49228 11.8429L1.48778 13.5791C1.48778 15.1969 2.51753 16.6279 4.05203 17.1394L7.32578 18.2314C7.86128 18.4091 8.42378 18.4984 8.98628 18.4984C9.54878 18.4984 10.1113 18.4091 10.6468 18.2306L13.9235 17.1386C15.4565 16.6271 16.487 15.1991 16.4878 13.5851L16.4923 11.8436C17.1268 11.6216 17.6233 11.1349 17.8565 10.5026C18.0935 9.85914 18.0268 9.15264 17.7073 8.62764ZM1.64528 9.25014L2.63378 7.17789L7.93253 8.94339L6.71753 11.3854C6.53603 11.6899 6.17078 11.8234 5.83703 11.7124L2.02628 10.4411C1.80278 10.3669 1.62878 10.1981 1.54703 9.97764C1.46603 9.75789 1.48928 9.51564 1.64528 9.25014ZM4.52678 15.7174C3.60578 15.4099 2.98703 14.5511 2.98778 13.5814L2.99078 12.3439L5.36378 13.1351C6.37328 13.4696 7.45853 13.0676 8.03303 12.1061L8.24078 11.6899L8.23778 16.9241C8.09003 16.8941 7.94453 16.8559 7.80128 16.8086L4.52753 15.7174H4.52678ZM13.4488 15.7159L10.172 16.8079C10.0295 16.8551 9.88403 16.8941 9.73703 16.9241L9.74003 11.6779L9.97928 12.1579C10.397 12.8539 11.1283 13.2529 11.9008 13.2529C12.1393 13.2529 12.383 13.2146 12.6208 13.1351L14.9908 12.3454L14.9878 13.5836C14.9878 14.5526 14.369 15.4091 13.4488 15.7159ZM16.4488 9.98214C16.37 10.1959 16.2005 10.3601 15.9845 10.4329L12.146 11.7116C11.8175 11.8219 11.4448 11.6846 11.294 11.4379L10.0535 8.94639L15.3515 7.17864L16.388 9.33864C16.505 9.53439 16.5283 9.76839 16.4488 9.98214ZM3.91028 4.92264C3.61703 4.62939 3.61703 4.15539 3.91028 3.86214L6.83303 0.940141C7.41728 0.355891 8.36978 0.355891 8.95403 0.940141L10.151 2.13714C10.7158 1.84839 11.4545 1.93464 11.9158 2.39589L13.607 4.08714C13.9003 4.38039 13.9003 4.85439 13.607 5.14764C13.3138 5.44089 12.8398 5.44089 12.5465 5.14764L10.8553 3.45639L8.49203 5.81964C8.34578 5.96589 8.15378 6.03939 7.96178 6.03939C7.76978 6.03939 7.57778 5.96589 7.43153 5.81964C7.13828 5.52639 7.13828 5.05239 7.43153 4.75914L9.04178 3.14889L7.89428 2.00139L4.97153 4.92339C4.82528 5.06964 4.63328 5.14314 4.44128 5.14314C4.24928 5.14314 4.05728 5.06964 3.91103 4.92339L3.91028 4.92264Z" fill="#7A808A"/>
</g>
<defs>
<clipPath id="clip0_3566_12991">
<rect width="18" height="18" fill="white" transform="translate(0 0.5)"/>
</clipPath>
</defs>
</svg>
