<svg width="19" height="19" viewBox="0 0 19 19" fill="none" xmlns="http://www.w3.org/2000/svg">
<g clip-path="url(#clip0_3566_12946)">
<path d="M6.06348 11C7.72098 11 9.06348 9.6575 9.06348 8C9.06348 6.3425 7.72098 5 6.06348 5C4.40598 5 3.06348 6.3425 3.06348 8C3.06348 9.6575 4.40598 11 6.06348 11ZM6.06348 6.5C6.88848 6.5 7.56348 7.175 7.56348 8C7.56348 8.825 6.88848 9.5 6.06348 9.5C5.23848 9.5 4.56348 8.825 4.56348 8C4.56348 7.175 5.23848 6.5 6.06348 6.5ZM11.3135 17.75C11.3135 18.1625 10.976 18.5 10.5635 18.5C10.151 18.5 9.81348 18.1625 9.81348 17.75C9.81348 15.68 8.13348 14 6.06348 14C3.99348 14 2.31348 15.68 2.31348 17.75C2.31348 18.1625 1.97598 18.5 1.56348 18.5C1.15098 18.5 0.813477 18.1625 0.813477 17.75C0.813477 14.855 3.16848 12.5 6.06348 12.5C8.95848 12.5 11.3135 14.855 11.3135 17.75ZM18.8135 4.25V10.25C18.8135 12.32 17.1335 14 15.0635 14H12.0635C11.651 14 11.3135 13.6625 11.3135 13.25C11.3135 12.8375 11.651 12.5 12.0635 12.5H15.0635C16.301 12.5 17.3135 11.4875 17.3135 10.25V4.25C17.3135 3.0125 16.301 2 15.0635 2H7.90848C7.10598 2 6.36348 2.435 5.95848 3.125C5.74848 3.485 5.29098 3.605 4.93098 3.4025C4.57098 3.1925 4.45098 2.735 4.66098 2.375C5.33598 1.22 6.58098 0.5 7.90848 0.5H15.0635C17.1335 0.5 18.8135 2.18 18.8135 4.25ZM11.066 8.69L13.256 6.5H12.0635C11.651 6.5 11.3135 6.1625 11.3135 5.75C11.3135 5.3375 11.651 5 12.0635 5H14.3135C15.1385 5 15.8135 5.675 15.8135 6.5V8.75C15.8135 9.1625 15.476 9.5 15.0635 9.5C14.651 9.5 14.3135 9.1625 14.3135 8.75V7.5575L12.1235 9.7475C11.7785 10.0925 11.3135 10.28 10.841 10.28C10.676 10.28 10.511 10.2575 10.346 10.2125C9.94848 10.1 9.71598 9.6875 9.82848 9.29C9.94098 8.8925 10.3535 8.66 10.7585 8.7725C10.8485 8.795 10.9685 8.7875 11.066 8.69Z" fill="#7A808A"/>
</g>
<defs>
<clipPath id="clip0_3566_12946">
<rect width="18" height="18" fill="white" transform="translate(0.813477 0.5)"/>
</clipPath>
</defs>
</svg>
