<svg width="13" height="13" viewBox="0 0 13 13" fill="none" xmlns="http://www.w3.org/2000/svg">
<g clip-path="url(#clip0_2812_37792)">
<path d="M10.8333 0H2.16667C0.97175 0 0 0.97175 0 2.16667V2.70833C0 3.18825 0.209625 3.6205 0.541667 3.91842V10.2917C0.541667 11.785 1.75663 13 3.25 13H4.875C5.174 13 5.41667 12.7573 5.41667 12.4583C5.41667 12.1593 5.174 11.9167 4.875 11.9167H3.25C2.35408 11.9167 1.625 11.1876 1.625 10.2917V4.33333H11.375V4.875C11.375 5.174 11.6177 5.41667 11.9167 5.41667C12.2157 5.41667 12.4583 5.174 12.4583 4.875V3.91842C12.7904 3.6205 13 3.18879 13 2.70833V2.16667C13 0.97175 12.0283 0 10.8333 0ZM1.625 3.25C1.32654 3.25 1.08333 3.00679 1.08333 2.70833V2.16667C1.08333 1.56921 1.56921 1.08333 2.16667 1.08333H10.8333C11.4308 1.08333 11.9167 1.56921 11.9167 2.16667V2.70833C11.9167 3.00679 11.6735 3.25 11.375 3.25H1.625ZM9.20833 5.41667C7.1175 5.41667 5.41667 7.1175 5.41667 9.20833C5.41667 11.2992 7.1175 13 9.20833 13C11.2992 13 13 11.2992 13 9.20833C13 7.1175 11.2992 5.41667 9.20833 5.41667ZM9.20833 11.9167C7.71496 11.9167 6.5 10.7017 6.5 9.20833C6.5 7.71496 7.71496 6.5 9.20833 6.5C10.7017 6.5 11.9167 7.71496 11.9167 9.20833C11.9167 10.7017 10.7017 11.9167 9.20833 11.9167Z" fill="#28B446"/>
<path d="M8.6945 9.81876L10.4757 8.18291C10.5177 8.1443 10.5668 8.125 10.6228 8.125C10.6789 8.125 10.7279 8.1443 10.77 8.18291C10.812 8.22151 10.833 8.26739 10.833 8.32053C10.833 8.37368 10.812 8.41949 10.77 8.45796L8.84162 10.2338C8.79959 10.2724 8.75055 10.2917 8.6945 10.2917C8.63845 10.2917 8.58941 10.2724 8.54738 10.2338L7.64363 9.40377C7.6016 9.36516 7.58142 9.31935 7.5831 9.26634C7.58479 9.21332 7.60671 9.16744 7.64889 9.12871C7.69106 9.08998 7.74101 9.07068 7.79874 9.07081C7.85647 9.07093 7.90635 9.09024 7.94839 9.12871L8.6945 9.81876Z" fill="#28B446"/>
</g>
<defs>
<clipPath id="clip0_2812_37792">
<rect width="13" height="13" fill="white"/>
</clipPath>
</defs>
</svg>
