<svg width="18" height="19" viewBox="0 0 18 19" fill="none" xmlns="http://www.w3.org/2000/svg">
<g clip-path="url(#clip0_3566_13012)">
<path d="M14.625 0.5H3.375C1.51425 0.5 0 2.01425 0 3.875V4.25C0 4.91225 0.29325 5.5025 0.75 5.915V14.75C0.75 16.8177 2.43225 18.5 4.5 18.5H6.75C7.164 18.5 7.5 18.164 7.5 17.75C7.5 17.336 7.164 17 6.75 17H4.5C3.2595 17 2.25 15.9905 2.25 14.75V6.5H15.75V7.25C15.75 7.664 16.0853 8 16.5 8C16.9147 8 17.25 7.664 17.25 7.25V5.915C17.7068 5.50325 18 4.91225 18 4.25V3.875C18 2.01425 16.4858 0.5 14.625 0.5ZM2.25 5C1.83675 5 1.5 4.66325 1.5 4.25V3.875C1.5 2.8415 2.3415 2 3.375 2H14.625C15.6593 2 16.5 2.8415 16.5 3.875V4.25C16.5 4.66325 16.164 5 15.75 5H2.25ZM12.75 8C9.85575 8 7.5 10.355 7.5 13.25C7.5 16.145 9.85575 18.5 12.75 18.5C15.6442 18.5 18 16.145 18 13.25C18 10.355 15.6442 8 12.75 8ZM12.75 17C10.6823 17 9 15.3177 9 13.25C9 11.1823 10.6823 9.5 12.75 9.5C14.8177 9.5 16.5 11.1823 16.5 13.25C16.5 15.3177 14.8177 17 12.75 17ZM14.4053 13.8447C14.6985 14.138 14.6985 14.612 14.4053 14.9053C14.259 15.0515 14.067 15.125 13.875 15.125C13.683 15.125 13.491 15.0515 13.3447 14.9053L12.2197 13.7803C12.0787 13.6393 12 13.4487 12 13.25V11.75C12 11.336 12.3352 11 12.75 11C13.1648 11 13.5 11.336 13.5 11.75V12.9395L14.4053 13.8447Z" fill="#7A808A"/>
</g>
<defs>
<clipPath id="clip0_3566_13012">
<rect width="18" height="18" fill="white" transform="translate(0 0.5)"/>
</clipPath>
</defs>
</svg>
