<svg width="21" height="24" viewBox="0 0 21 24" fill="none" xmlns="http://www.w3.org/2000/svg">
<path d="M19.1992 9.10645H18.6434V6.42504C18.6434 6.40832 18.6408 6.39147 18.6388 6.37441C18.6379 6.26806 18.6038 6.16344 18.5309 6.08062L14.0685 0.983339C14.0671 0.982037 14.0658 0.981574 14.0649 0.980146C14.0383 0.950439 14.0073 0.925733 13.9745 0.904346C13.9648 0.897833 13.955 0.89237 13.9449 0.886614C13.9165 0.871235 13.8863 0.858252 13.8553 0.848966C13.8469 0.846739 13.8394 0.843293 13.831 0.841067C13.7973 0.833125 13.7623 0.828125 13.7268 0.828125H2.76041C2.25964 0.828125 1.85282 1.2354 1.85282 1.73575V9.10625H1.29722C0.580856 9.10625 0 9.68685 0 10.4035V17.1492C0 17.8651 0.580856 18.4463 1.29722 18.4463H1.85286V23.064C1.85286 23.5643 2.25968 23.9716 2.76045 23.9716H17.7356C18.236 23.9716 18.6432 23.5644 18.6432 23.064V18.4463H19.199C19.9151 18.4463 20.4961 17.8653 20.4961 17.1492V10.4037C20.4961 9.68685 19.9155 9.10645 19.1992 9.10645ZM2.76041 1.73575H13.273V6.37916C13.273 6.62988 13.4764 6.83295 13.7268 6.83295H17.7356V9.10645H2.76041V1.73575ZM12.944 15.7169V17.0331H8.61389V10.1017H10.1879V15.7169H12.944ZM1.7961 17.0329L3.80161 13.5262L1.86799 10.1017H3.66775L4.27444 11.3663C4.48029 11.7878 4.63462 12.1275 4.79925 12.5182H4.81954C4.9845 12.0758 5.11791 11.7673 5.29262 11.3663L5.87894 10.1017H7.6684L5.71419 13.4851L7.77143 17.0331H5.96125L5.33397 15.7785C5.07703 15.295 4.91227 14.9352 4.71698 14.5341H4.69639C4.55222 14.9354 4.37776 15.2954 4.16183 15.7785L3.58573 17.0331H1.7961V17.0329ZM17.7356 22.8183H2.76041V18.4463H17.7356V22.8183H17.7356ZM15.5659 17.1363C14.7744 17.1363 13.9925 16.9303 13.6021 16.7145L13.9205 15.4187C14.3424 15.6345 14.9903 15.8508 15.659 15.8508C16.3791 15.8508 16.7594 15.5525 16.7594 15.1C16.7594 14.6679 16.4303 14.4211 15.5972 14.1229C14.4454 13.7216 13.6945 13.0841 13.6945 12.0758C13.6945 10.893 14.6819 9.9882 16.3176 9.9882C17.0989 9.9882 17.675 10.1532 18.0862 10.3379L17.7366 11.603C17.459 11.4691 16.9651 11.2738 16.2866 11.2738C15.6079 11.2738 15.2789 11.5822 15.2789 11.9425C15.2789 12.3847 15.6692 12.5803 16.5642 12.9197C17.788 13.3722 18.3641 14.0095 18.3641 14.9866C18.3636 16.149 17.4691 17.1363 15.5659 17.1363Z" fill="#28B446"/>
</svg>
