<svg width="18" height="19" viewBox="0 0 18 19" fill="none" xmlns="http://www.w3.org/2000/svg">
<g clip-path="url(#clip0_3566_12954)">
<path d="M15.75 2.75H9.177L6.177 1.25H2.25C1.65326 1.25 1.08097 1.48705 0.65901 1.90901C0.237053 2.33097 0 2.90326 0 3.5L0 17.75H18V5C18 4.40326 17.7629 3.83097 17.341 3.40901C16.919 2.98705 16.3467 2.75 15.75 2.75ZM2.25 2.75H5.823L8.823 4.25H15.75C15.9489 4.25 16.1397 4.32902 16.2803 4.46967C16.421 4.61032 16.5 4.80109 16.5 5V5.66075L1.5 5.7455V3.5C1.5 3.30109 1.57902 3.11032 1.71967 2.96967C1.86032 2.82902 2.05109 2.75 2.25 2.75ZM1.5 16.25V7.2455L16.5 7.16075V16.25H1.5Z" fill="#7A808A"/>
</g>
<defs>
<clipPath id="clip0_3566_12954">
<rect width="18" height="18" fill="white" transform="translate(0 0.5)"/>
</clipPath>
</defs>
</svg>
