<svg width="19" height="19" viewBox="0 0 19 19" fill="none" xmlns="http://www.w3.org/2000/svg">
<g clip-path="url(#clip0_3347_6090)">
<path d="M6.06348 0.5H3.81348C3.01783 0.5 2.25477 0.816071 1.69216 1.37868C1.12955 1.94129 0.813477 2.70435 0.813477 3.5L0.813477 5.75C0.813477 6.54565 1.12955 7.30871 1.69216 7.87132C2.25477 8.43393 3.01783 8.75 3.81348 8.75H6.06348C6.85913 8.75 7.62219 8.43393 8.1848 7.87132C8.74741 7.30871 9.06348 6.54565 9.06348 5.75V3.5C9.06348 2.70435 8.74741 1.94129 8.1848 1.37868C7.62219 0.816071 6.85913 0.5 6.06348 0.5ZM7.56348 5.75C7.56348 6.14782 7.40544 6.52936 7.12414 6.81066C6.84283 7.09196 6.4613 7.25 6.06348 7.25H3.81348C3.41565 7.25 3.03412 7.09196 2.75282 6.81066C2.47151 6.52936 2.31348 6.14782 2.31348 5.75V3.5C2.31348 3.10218 2.47151 2.72064 2.75282 2.43934C3.03412 2.15804 3.41565 2 3.81348 2H6.06348C6.4613 2 6.84283 2.15804 7.12414 2.43934C7.40544 2.72064 7.56348 3.10218 7.56348 3.5V5.75Z" fill="#7A808A"/>
<path d="M15.8135 0.5H13.5635C12.7678 0.5 12.0048 0.816071 11.4422 1.37868C10.8795 1.94129 10.5635 2.70435 10.5635 3.5V5.75C10.5635 6.54565 10.8795 7.30871 11.4422 7.87132C12.0048 8.43393 12.7678 8.75 13.5635 8.75H15.8135C16.6091 8.75 17.3722 8.43393 17.9348 7.87132C18.4974 7.30871 18.8135 6.54565 18.8135 5.75V3.5C18.8135 2.70435 18.4974 1.94129 17.9348 1.37868C17.3722 0.816071 16.6091 0.5 15.8135 0.5ZM17.3135 5.75C17.3135 6.14782 17.1554 6.52936 16.8741 6.81066C16.5928 7.09196 16.2113 7.25 15.8135 7.25H13.5635C13.1657 7.25 12.7841 7.09196 12.5028 6.81066C12.2215 6.52936 12.0635 6.14782 12.0635 5.75V3.5C12.0635 3.10218 12.2215 2.72064 12.5028 2.43934C12.7841 2.15804 13.1657 2 13.5635 2H15.8135C16.2113 2 16.5928 2.15804 16.8741 2.43934C17.1554 2.72064 17.3135 3.10218 17.3135 3.5V5.75Z" fill="#7A808A"/>
<path d="M6.06348 10.25H3.81348C3.01783 10.25 2.25477 10.5661 1.69216 11.1287C1.12955 11.6913 0.813477 12.4544 0.813477 13.25L0.813477 15.5C0.813477 16.2956 1.12955 17.0587 1.69216 17.6213C2.25477 18.1839 3.01783 18.5 3.81348 18.5H6.06348C6.85913 18.5 7.62219 18.1839 8.1848 17.6213C8.74741 17.0587 9.06348 16.2956 9.06348 15.5V13.25C9.06348 12.4544 8.74741 11.6913 8.1848 11.1287C7.62219 10.5661 6.85913 10.25 6.06348 10.25ZM7.56348 15.5C7.56348 15.8978 7.40544 16.2794 7.12414 16.5607C6.84283 16.842 6.4613 17 6.06348 17H3.81348C3.41565 17 3.03412 16.842 2.75282 16.5607C2.47151 16.2794 2.31348 15.8978 2.31348 15.5V13.25C2.31348 12.8522 2.47151 12.4706 2.75282 12.1893C3.03412 11.908 3.41565 11.75 3.81348 11.75H6.06348C6.4613 11.75 6.84283 11.908 7.12414 12.1893C7.40544 12.4706 7.56348 12.8522 7.56348 13.25V15.5Z" fill="#7A808A"/>
<path d="M15.8135 10.25H13.5635C12.7678 10.25 12.0048 10.5661 11.4422 11.1287C10.8795 11.6913 10.5635 12.4544 10.5635 13.25V15.5C10.5635 16.2956 10.8795 17.0587 11.4422 17.6213C12.0048 18.1839 12.7678 18.5 13.5635 18.5H15.8135C16.6091 18.5 17.3722 18.1839 17.9348 17.6213C18.4974 17.0587 18.8135 16.2956 18.8135 15.5V13.25C18.8135 12.4544 18.4974 11.6913 17.9348 11.1287C17.3722 10.5661 16.6091 10.25 15.8135 10.25ZM17.3135 15.5C17.3135 15.8978 17.1554 16.2794 16.8741 16.5607C16.5928 16.842 16.2113 17 15.8135 17H13.5635C13.1657 17 12.7841 16.842 12.5028 16.5607C12.2215 16.2794 12.0635 15.8978 12.0635 15.5V13.25C12.0635 12.8522 12.2215 12.4706 12.5028 12.1893C12.7841 11.908 13.1657 11.75 13.5635 11.75H15.8135C16.2113 11.75 16.5928 11.908 16.8741 12.1893C17.1554 12.4706 17.3135 12.8522 17.3135 13.25V15.5Z" fill="#7A808A"/>
</g>
<defs>
<clipPath id="clip0_3347_6090">
<rect width="18" height="18" fill="white" transform="translate(0.813477 0.5)"/>
</clipPath>
</defs>
</svg>
