<svg width="18" height="19" viewBox="0 0 18 19" fill="none" xmlns="http://www.w3.org/2000/svg">
<g clip-path="url(#clip0_3566_13005)">
<path d="M2.99961 5.00041C2.70393 5.00118 2.41102 4.94332 2.13784 4.83016C1.86467 4.717 1.61664 4.55079 1.40811 4.34116L0.250111 3.31066C0.101524 3.17818 0.0116476 2.99211 0.000254802 2.79336C-0.011138 2.59462 0.0568856 2.3995 0.189361 2.25091C0.321837 2.10232 0.507913 2.01244 0.706654 2.00105C0.905396 1.98966 1.10052 2.05768 1.24911 2.19016L2.43786 3.25066C2.50591 3.32708 2.58888 3.38877 2.68167 3.43192C2.77445 3.47508 2.87509 3.49879 2.97738 3.5016C3.07967 3.50441 3.18146 3.48626 3.27647 3.44826C3.37148 3.41027 3.45772 3.35323 3.52986 3.28066L6.23286 0.707407C6.37821 0.57801 6.56816 0.510172 6.76259 0.518221C6.95702 0.52627 7.14071 0.609576 7.27487 0.750544C7.40902 0.891511 7.48313 1.0791 7.48154 1.2737C7.47996 1.46829 7.4028 1.65465 7.26636 1.79341L4.57461 4.35391C4.36744 4.55987 4.12171 4.72298 3.85146 4.83391C3.58121 4.94484 3.29174 5.00142 2.99961 5.00041ZM17.9996 3.50041C17.9996 3.3015 17.9206 3.11073 17.7799 2.97008C17.6393 2.82942 17.4485 2.75041 17.2496 2.75041H9.74961C9.5507 2.75041 9.35993 2.82942 9.21928 2.97008C9.07863 3.11073 8.99961 3.3015 8.99961 3.50041C8.99961 3.69932 9.07863 3.89008 9.21928 4.03074C9.35993 4.17139 9.5507 4.25041 9.74961 4.25041H17.2496C17.4485 4.25041 17.6393 4.17139 17.7799 4.03074C17.9206 3.89008 17.9996 3.69932 17.9996 3.50041ZM4.57461 10.3539L7.26636 7.79341C7.34149 7.72652 7.4024 7.64521 7.44546 7.5543C7.48852 7.4634 7.51285 7.36476 7.51701 7.26426C7.52117 7.16376 7.50508 7.06344 7.46968 6.96929C7.43428 6.87514 7.3803 6.78907 7.31096 6.7162C7.24161 6.64333 7.15832 6.58516 7.06603 6.54514C6.97375 6.50513 6.87436 6.48408 6.77377 6.48326C6.67319 6.48244 6.57347 6.50186 6.48054 6.54037C6.38761 6.57888 6.30338 6.63568 6.23286 6.70741L3.53286 9.28066C3.39009 9.41718 3.20015 9.49337 3.00261 9.49337C2.80507 9.49337 2.61514 9.41718 2.47236 9.28066L1.27986 8.09191C1.13841 7.95529 0.948958 7.87969 0.75231 7.8814C0.555663 7.88311 0.367553 7.96199 0.228497 8.10104C0.0894412 8.2401 0.0105645 8.42821 0.00885568 8.62486C0.00714687 8.8215 0.0827427 9.01096 0.219361 9.15241L1.40811 10.3412C1.82787 10.761 2.39655 10.9979 2.99024 11.0003C3.58392 11.0027 4.15449 10.7704 4.57761 10.3539H4.57461ZM17.9996 9.50041C17.9996 9.30149 17.9206 9.11073 17.7799 8.97008C17.6393 8.82942 17.4485 8.75041 17.2496 8.75041H9.74961C9.5507 8.75041 9.35993 8.82942 9.21928 8.97008C9.07863 9.11073 8.99961 9.30149 8.99961 9.50041C8.99961 9.69932 9.07863 9.89008 9.21928 10.0307C9.35993 10.1714 9.5507 10.2504 9.74961 10.2504H17.2496C17.4485 10.2504 17.6393 10.1714 17.7799 10.0307C17.9206 9.89008 17.9996 9.69932 17.9996 9.50041ZM4.57461 16.3539L7.26336 13.7934C7.33849 13.7265 7.3994 13.6452 7.44246 13.5543C7.48552 13.4634 7.50985 13.3648 7.51401 13.2643C7.51817 13.1638 7.50208 13.0634 7.46668 12.9693C7.43128 12.8751 7.3773 12.7891 7.30795 12.7162C7.23861 12.6433 7.15532 12.5852 7.06303 12.5451C6.97075 12.5051 6.87136 12.4841 6.77077 12.4833C6.67019 12.4824 6.57047 12.5019 6.47754 12.5404C6.38461 12.5789 6.30038 12.6357 6.22986 12.7074L3.52986 15.2807C3.45772 15.3532 3.37148 15.4103 3.27647 15.4483C3.18146 15.4863 3.07967 15.5044 2.97738 15.5016C2.87509 15.4988 2.77445 15.4751 2.68167 15.4319C2.58888 15.3888 2.50591 15.3271 2.43786 15.2507L1.24911 14.1902C1.10052 14.0577 0.905396 13.9897 0.706654 14.0011C0.507913 14.0124 0.321837 14.1023 0.189361 14.2509C0.0568856 14.3995 -0.011138 14.5946 0.000254802 14.7934C0.0116476 14.9921 0.101524 15.1782 0.250111 15.3107L1.40811 16.3412C1.82787 16.761 2.39655 16.9979 2.99024 17.0003C3.58392 17.0027 4.15449 16.7704 4.57761 16.3539H4.57461ZM17.9996 15.5004C17.9996 15.3015 17.9206 15.1107 17.7799 14.9701C17.6393 14.8294 17.4485 14.7504 17.2496 14.7504H9.74961C9.5507 14.7504 9.35993 14.8294 9.21928 14.9701C9.07863 15.1107 8.99961 15.3015 8.99961 15.5004C8.99961 15.6993 9.07863 15.8901 9.21928 16.0307C9.35993 16.1714 9.5507 16.2504 9.74961 16.2504H17.2496C17.4485 16.2504 17.6393 16.1714 17.7799 16.0307C17.9206 15.8901 17.9996 15.6993 17.9996 15.5004Z" fill="#7A808A"/>
</g>
<defs>
<clipPath id="clip0_3566_13005">
<rect width="18" height="18" fill="white" transform="translate(0 0.5)"/>
</clipPath>
</defs>
</svg>
