<svg width="17" height="25" viewBox="0 0 17 25" fill="none" xmlns="http://www.w3.org/2000/svg">
<path d="M4.65332 18.2796C5.35299 19.1712 5.98978 20.1104 6.55908 21.0905C7.04516 22.0121 7.2478 22.6371 7.60303 23.7476C7.82089 24.3612 8.01779 24.5443 8.44111 24.5443C8.90241 24.5443 9.1117 24.2328 9.2734 23.751C9.60919 22.7022 9.87266 21.9018 10.2883 21.1456C11.104 19.6855 12.1176 18.388 13.1135 17.141C13.3831 16.7881 15.1262 14.7321 15.911 13.1097C15.911 13.1097 16.8755 11.3276 16.8755 8.83876C16.8755 6.51066 15.9243 4.896 15.9243 4.896L13.1857 5.6294L11.5226 10.0097L11.1111 10.6137L11.0289 10.7232L10.9194 10.8601L10.7274 11.0789L10.4529 11.3533L8.97189 12.5599L5.26926 14.6978L4.65332 18.2796Z" fill="#34A853"/>
<path d="M0.831055 12.81C1.73473 14.8741 3.47734 16.6885 4.65636 18.2808L10.9187 10.8628C10.9187 10.8628 10.0364 12.0166 8.43604 12.0166C6.65341 12.0166 5.2133 10.5931 5.2133 8.79817C5.2133 7.56728 5.95382 6.72168 5.95382 6.72168L1.70282 7.86075L0.831055 12.81Z" fill="#FBBC04"/>
<path d="M10.9894 0.73999C13.0693 1.41058 14.8495 2.81839 15.9262 4.89435L10.9214 10.8585C10.9214 10.8585 11.6619 9.99761 11.6619 8.77437C11.6619 6.93762 10.1153 5.56547 8.44446 5.56547C6.86446 5.56547 5.95703 6.71739 5.95703 6.71739V2.96005L10.9894 0.73999Z" fill="#4285F4"/>
<path d="M1.97852 3.37539C3.22074 1.88913 5.40659 0.358643 8.42011 0.358643C9.88218 0.358643 10.9837 0.742484 10.9837 0.742484L5.95174 6.72081H2.38655L1.97852 3.37539Z" fill="#1A73E8"/>
<path d="M0.831361 12.8102C0.831361 12.8102 0 11.1821 0 8.82357C0 6.59441 0.866561 4.64586 1.97854 3.37549L5.95459 6.72143L0.831361 12.8102Z" fill="#EA4335"/>
</svg>
