<svg width="19" height="19" viewBox="0 0 19 19" fill="none" xmlns="http://www.w3.org/2000/svg">
<g clip-path="url(#clip0_3566_12963)">
<path d="M9.81348 5C9.22013 5 8.64012 5.17595 8.14677 5.50559C7.65342 5.83524 7.2689 6.30377 7.04184 6.85195C6.81478 7.40013 6.75537 8.00333 6.87112 8.58527C6.98688 9.16721 7.2726 9.70176 7.69216 10.1213C8.11172 10.5409 8.64626 10.8266 9.22821 10.9424C9.81015 11.0581 10.4134 10.9987 10.9615 10.7716C11.5097 10.5446 11.9782 10.1601 12.3079 9.66671C12.6375 9.17336 12.8135 8.59334 12.8135 8C12.8135 7.20435 12.4974 6.44129 11.9348 5.87868C11.3722 5.31607 10.6091 5 9.81348 5ZM9.81348 9.5C9.51681 9.5 9.2268 9.41203 8.98012 9.2472C8.73345 9.08238 8.54119 8.84811 8.42766 8.57403C8.31413 8.29994 8.28442 7.99834 8.3423 7.70736C8.40018 7.41639 8.54304 7.14912 8.75282 6.93934C8.9626 6.72956 9.22987 6.5867 9.52084 6.52882C9.81181 6.47094 10.1134 6.50065 10.3875 6.61418C10.6616 6.72771 10.8959 6.91997 11.0607 7.16665C11.2255 7.41332 11.3135 7.70333 11.3135 8C11.3135 8.39783 11.1554 8.77936 10.8741 9.06066C10.5928 9.34196 10.2113 9.5 9.81348 9.5Z" fill="#7A808A"/>
<path d="M9.81371 18.4995C9.18217 18.5028 8.55904 18.3547 7.99651 18.0676C7.43398 17.7805 6.94841 17.3628 6.58046 16.8495C3.72221 12.9068 2.27246 9.9428 2.27246 8.0393C2.27246 6.03923 3.06698 4.12109 4.48124 2.70683C5.8955 1.29257 7.81365 0.498047 9.81371 0.498047C11.8138 0.498047 13.7319 1.29257 15.1462 2.70683C16.5604 4.12109 17.355 6.03923 17.355 8.0393C17.355 9.9428 15.9052 12.9068 13.047 16.8495C12.679 17.3628 12.1934 17.7805 11.6309 18.0676C11.0684 18.3547 10.4453 18.5028 9.81371 18.4995ZM9.81371 2.1353C8.24802 2.13708 6.74697 2.75984 5.63987 3.86695C4.53276 4.97406 3.91 6.47511 3.90821 8.0408C3.90821 9.5483 5.32796 12.336 7.90496 15.8903C8.12373 16.1916 8.41074 16.4369 8.7425 16.606C9.07425 16.7751 9.44134 16.8633 9.81371 16.8633C10.1861 16.8633 10.5532 16.7751 10.8849 16.606C11.2167 16.4369 11.5037 16.1916 11.7225 15.8903C14.2995 12.336 15.7192 9.5483 15.7192 8.0408C15.7174 6.47511 15.0947 4.97406 13.9876 3.86695C12.8804 2.75984 11.3794 2.13708 9.81371 2.1353Z" fill="#7A808A"/>
</g>
<defs>
<clipPath id="clip0_3566_12963">
<rect width="18" height="18" fill="white" transform="translate(0.813477 0.5)"/>
</clipPath>
</defs>
</svg>
