<svg width="19" height="19" viewBox="0 0 19 19" fill="none" xmlns="http://www.w3.org/2000/svg">
<g clip-path="url(#clip0_3566_13033)">
<path d="M15.0635 3.5H14.2377C13.889 1.79075 12.374 0.5 10.5635 0.5H4.56348C2.49573 0.5 0.813477 2.18225 0.813477 4.25V13.8905C0.813477 14.486 1.13973 15.0305 1.66398 15.311C1.90248 15.4392 2.16423 15.5023 2.42523 15.5023C2.73723 15.5023 3.04848 15.4115 3.31773 15.2323L5.53023 13.757C6.04848 15.2083 7.43598 16.25 9.06348 16.25H13.3362L16.3092 18.233C16.5785 18.4122 16.8897 18.503 17.2017 18.503C17.4627 18.503 17.7237 18.4392 17.963 18.311C18.4872 18.0297 18.8135 17.4853 18.8135 16.8905V7.25C18.8135 5.18225 17.1312 3.5 15.0635 3.5ZM2.48598 13.9843C2.47173 13.9932 2.43048 14.0203 2.37198 13.9895C2.31273 13.958 2.31273 13.9078 2.31273 13.8912V4.25C2.31273 3.0095 3.32223 2 4.56273 2H10.5627C11.8032 2 12.8127 3.0095 12.8127 4.25V9.5C12.8127 10.7405 11.8032 11.75 10.5627 11.75H6.06273C5.83323 11.75 5.65698 11.8693 5.63898 11.8813L2.48598 13.9843ZM17.3135 16.8913C17.3135 16.907 17.3135 16.958 17.255 16.9895C17.195 17.0217 17.1545 16.994 17.141 16.9842L13.9797 14.876C13.8567 14.7942 13.712 14.75 13.5635 14.75H9.06348C8.08548 14.75 7.25223 14.123 6.94248 13.25H10.5635C12.6312 13.25 14.3135 11.5677 14.3135 9.5V5H15.0635C16.304 5 17.3135 6.0095 17.3135 7.25V16.8913ZM5.31348 5.75C5.31348 5.08325 5.60673 4.45475 6.11748 4.02575C6.62823 3.59675 7.30023 3.41525 7.96473 3.536C8.87148 3.69425 9.61773 4.43975 9.77748 5.34875C9.94473 6.30275 9.49098 7.256 8.64798 7.72175C8.31273 7.90625 8.31273 7.96025 8.31273 8C8.31273 8.41475 7.97673 8.75 7.56273 8.75C7.14873 8.75 6.81273 8.41475 6.81273 8C6.81273 7.019 7.59123 6.59075 7.92348 6.40775C8.14098 6.2885 8.36973 6.0065 8.29998 5.60825C8.24823 5.31425 7.99848 5.0645 7.70523 5.0135C7.47573 4.9715 7.25373 5.03 7.08123 5.1755C6.91023 5.318 6.81273 5.528 6.81273 5.75075C6.81273 6.1655 6.47673 6.50075 6.06273 6.50075C5.64873 6.50075 5.31273 6.1655 5.31273 5.75075L5.31348 5.75ZM8.31348 10.25C8.31348 10.664 7.97748 11 7.56348 11C7.14948 11 6.81348 10.664 6.81348 10.25C6.81348 9.836 7.14948 9.5 7.56348 9.5C7.97748 9.5 8.31348 9.836 8.31348 10.25Z" fill="#7A808A"/>
</g>
<defs>
<clipPath id="clip0_3566_13033">
<rect width="18" height="18" fill="white" transform="translate(0.813477 0.5)"/>
</clipPath>
</defs>
</svg>
