<svg width="40" height="40" viewBox="0 0 40 40" fill="none" xmlns="http://www.w3.org/2000/svg">
<rect width="40" height="40" rx="16" transform="matrix(-1 0 0 1 40 0)" fill="white" fill-opacity="0.08"/>
<path d="M20.4485 15.7246V18.8869" stroke="white" stroke-opacity="0.6" stroke-width="1.5" stroke-miterlimit="10" stroke-linecap="round"/>
<path d="M20.4684 11.5073C16.9737 11.5073 14.1437 14.3373 14.1437 17.832V19.8263C14.1437 20.472 13.8778 21.4407 13.5454 21.9915L12.3394 24.0047C11.5986 25.2488 12.1114 26.6352 13.4789 27.0911C18.0195 28.601 22.9267 28.601 27.4673 27.0911C27.7669 26.9911 28.0402 26.8251 28.2671 26.6054C28.4939 26.3856 28.6685 26.1177 28.7779 25.8214C28.8873 25.5251 28.9287 25.2081 28.8991 24.8936C28.8695 24.5792 28.7696 24.2754 28.6069 24.0047L27.4008 21.9915C27.0684 21.4407 26.8025 20.4625 26.8025 19.8263V17.832C26.793 14.3563 23.9441 11.5073 20.4684 11.5073Z" stroke="white" stroke-width="1.5" stroke-miterlimit="10" stroke-linecap="round"/>
<path d="M23.6108 27.4805C23.6108 29.2183 22.1863 30.6428 20.4485 30.6428C19.5843 30.6428 18.7866 30.2819 18.2168 29.7121C17.647 29.1424 17.2861 28.3447 17.2861 27.4805" stroke="white" stroke-opacity="0.6" stroke-width="1.5" stroke-miterlimit="10"/>
</svg>
