<svg width="17" height="17" viewBox="0 0 17 17" fill="none" xmlns="http://www.w3.org/2000/svg">
<path d="M8.63281 1.59375C8.99937 1.59375 9.29688 1.89125 9.29688 2.25781V7.96875H15.0078C15.1839 7.96875 15.3528 8.03871 15.4774 8.16325C15.6019 8.28779 15.6719 8.45669 15.6719 8.63281C15.6719 8.80893 15.6019 8.97784 15.4774 9.10238C15.3528 9.22691 15.1839 9.29688 15.0078 9.29688H9.29688V15.0078C9.29688 15.1839 9.22691 15.3528 9.10238 15.4774C8.97784 15.6019 8.80893 15.6719 8.63281 15.6719C8.45669 15.6719 8.28779 15.6019 8.16325 15.4774C8.03871 15.3528 7.96875 15.1839 7.96875 15.0078V9.29688H2.25781C2.08169 9.29688 1.91279 9.22691 1.78825 9.10238C1.66371 8.97784 1.59375 8.80893 1.59375 8.63281C1.59375 8.45669 1.66371 8.28779 1.78825 8.16325C1.91279 8.03871 2.08169 7.96875 2.25781 7.96875H7.96875V2.25781C7.96875 1.89125 8.26625 1.59375 8.63281 1.59375Z" fill="#BFA274"/>
</svg>
