<svg width="18" height="19" viewBox="0 0 18 19" fill="none" xmlns="http://www.w3.org/2000/svg">
<g clip-path="url(#clip0_3566_12998)">
<path d="M16.5 9.5H18C18 14.4628 13.9628 18.5 9 18.5C5.95875 18.5 3.1545 16.9565 1.50375 14.474L1.5 16.25H0V13.2568C0 12.4265 0.67575 11.75 1.506 11.75H4.5V13.25H2.52225C3.85425 15.545 6.31125 17 9 17C13.1355 17 16.5 13.6355 16.5 9.5ZM16.5 2.75L16.4963 4.51475C14.8545 2.03 12.0795 0.5 9 0.5C4.03725 0.5 0 4.53725 0 9.5H1.5C1.5 5.3645 4.8645 2 9 2C11.73 2 14.175 3.44075 15.4995 5.75H13.5V7.25H16.4932C17.3235 7.25 18 6.57425 18 5.74325V2.75H16.5ZM12.75 13.25H5.25V7.625C5.25 6.59075 6.0915 5.75 7.125 5.75H10.875C11.9093 5.75 12.75 6.59075 12.75 7.625V13.25ZM11.25 7.625C11.25 7.41875 11.0813 7.25 10.875 7.25H7.125C6.918 7.25 6.75 7.41875 6.75 7.625V11.75H11.25V7.625ZM7.875 9.5H10.125V8H7.875V9.5Z" fill="#7A808A"/>
</g>
<defs>
<clipPath id="clip0_3566_12998">
<rect width="18" height="18" fill="white" transform="translate(0 0.5)"/>
</clipPath>
</defs>
</svg>
