<svg width="48" height="48" viewBox="0 0 48 48" fill="none" xmlns="http://www.w3.org/2000/svg">
<rect width="48" height="48" rx="24" fill="#BFA274"/>
<g clip-path="url(#clip0_2646_27065)">
<path d="M13.154 15.6841C12.5851 14.1102 14.1102 12.5851 15.6841 13.1554L34.92 20.1121C36.4992 20.6838 36.6901 22.8385 35.2374 23.6801L29.0972 27.2349L23.6142 21.7519C23.3658 21.512 23.0331 21.3792 22.6878 21.3822C22.3425 21.3852 22.0121 21.5237 21.7679 21.7679C21.5237 22.0121 21.3852 22.3425 21.3822 22.6878C21.3792 23.0331 21.512 23.3658 21.7519 23.6142L27.2349 29.0972L23.6788 35.2374C22.8385 36.6901 20.6837 36.4979 20.1121 34.92L13.154 15.6841Z" fill="white"/>
</g>
<defs>
<clipPath id="clip0_2646_27065">
<rect width="31.6098" height="31.6098" fill="white" transform="matrix(-1 0 0 1 39.8047 8.19531)"/>
</clipPath>
</defs>
</svg>
