<svg width="16" height="17" viewBox="0 0 16 17" fill="none" xmlns="http://www.w3.org/2000/svg">
<path d="M14.3501 14.8559C14.2568 14.9478 14.1311 14.9994 14.0001 14.9996C13.8673 14.999 13.7398 14.9476 13.6438 14.8559L10.9438 12.1496C9.80671 13.1047 8.34474 13.584 6.86285 13.4874C5.38095 13.3908 3.99355 12.7259 2.99 11.6313C1.98645 10.5366 1.44424 9.09681 1.47645 7.61212C1.50867 6.12743 2.11282 4.71249 3.1629 3.66241C4.21298 2.61233 5.62791 2.00818 7.1126 1.97597C8.59729 1.94375 10.0371 2.48596 11.1317 3.48951C12.2264 4.49306 12.8913 5.88046 12.9879 7.36236C13.0845 8.84426 12.6052 10.3062 11.6501 11.4434L14.3501 14.1434C14.3973 14.1899 14.4349 14.2453 14.4605 14.3065C14.4861 14.3677 14.4993 14.4333 14.4993 14.4996C14.4993 14.5659 14.4861 14.6316 14.4605 14.6927C14.4349 14.7539 14.3973 14.8093 14.3501 14.8559ZM7.2501 12.4996C8.18956 12.4996 9.10792 12.221 9.88906 11.6991C10.6702 11.1772 11.279 10.4353 11.6385 9.56736C11.998 8.69941 12.0921 7.74434 11.9088 6.82293C11.7255 5.90152 11.2732 5.05515 10.6089 4.39085C9.94455 3.72655 9.09819 3.27416 8.17678 3.09088C7.25537 2.9076 6.3003 3.00166 5.43235 3.36118C4.5644 3.7207 3.82255 4.32952 3.30062 5.11065C2.77868 5.89178 2.5001 6.81015 2.5001 7.74961C2.50175 9.00888 3.00273 10.2161 3.89317 11.1065C4.78361 11.997 5.99083 12.498 7.2501 12.4996Z" fill="#606C7E"/>
</svg>
