<svg width="19" height="19" viewBox="0 0 19 19" fill="none" xmlns="http://www.w3.org/2000/svg">
<g clip-path="url(#clip0_3566_13041)">
<path d="M9.81348 6.5C9.22013 6.5 8.64012 6.67595 8.14677 7.00559C7.65342 7.33524 7.2689 7.80377 7.04184 8.35195C6.81478 8.90013 6.75537 9.50333 6.87112 10.0853C6.98688 10.6672 7.2726 11.2018 7.69216 11.6213C8.11172 12.0409 8.64626 12.3266 9.22821 12.4424C9.81015 12.5581 10.4134 12.4987 10.9615 12.2716C11.5097 12.0446 11.9782 11.6601 12.3079 11.1667C12.6375 10.6734 12.8135 10.0933 12.8135 9.5C12.8135 8.70435 12.4974 7.94129 11.9348 7.37868C11.3722 6.81607 10.6091 6.5 9.81348 6.5ZM9.81348 11C9.51681 11 9.2268 10.912 8.98012 10.7472C8.73345 10.5824 8.54119 10.3481 8.42766 10.074C8.31413 9.79994 8.28442 9.49834 8.3423 9.20736C8.40018 8.91639 8.54304 8.64912 8.75282 8.43934C8.9626 8.22956 9.22987 8.0867 9.52084 8.02882C9.81181 7.97094 10.1134 8.00065 10.3875 8.11418C10.6616 8.22771 10.8959 8.41997 11.0607 8.66665C11.2255 8.91332 11.3135 9.20333 11.3135 9.5C11.3135 9.89783 11.1554 10.2794 10.8741 10.5607C10.5928 10.842 10.2113 11 9.81348 11Z" fill="#7A808A"/>
<path d="M16.7838 10.925L16.4508 10.733C16.6007 9.91733 16.6007 9.08117 16.4508 8.2655L16.7838 8.0735C17.0399 7.92576 17.2644 7.72903 17.4444 7.49455C17.6245 7.26006 17.7566 6.9924 17.8332 6.70686C17.9098 6.42132 17.9294 6.12349 17.8909 5.83037C17.8524 5.53725 17.7566 5.25458 17.6088 4.9985C17.4611 4.74242 17.2644 4.51795 17.0299 4.3379C16.7954 4.15785 16.5277 4.02575 16.2422 3.94915C15.9566 3.87254 15.6588 3.85292 15.3657 3.89142C15.0726 3.92991 14.7899 4.02576 14.5338 4.1735L14.2001 4.36625C13.5697 3.82769 12.8453 3.41019 12.0633 3.13475V2.75C12.0633 2.15326 11.8263 1.58097 11.4043 1.15901C10.9824 0.737053 10.4101 0.5 9.81333 0.5C9.21659 0.5 8.64429 0.737053 8.22233 1.15901C7.80038 1.58097 7.56333 2.15326 7.56333 2.75V3.13475C6.78137 3.41118 6.05721 3.8297 5.42733 4.36925L5.09208 4.175C4.5749 3.87663 3.96039 3.79593 3.38371 3.95065C2.80704 4.10536 2.31544 4.48283 2.01708 5C1.71871 5.51717 1.638 6.13169 1.79272 6.70836C1.94744 7.28504 2.3249 7.77663 2.84208 8.075L3.17508 8.267C3.02516 9.08267 3.02516 9.91883 3.17508 10.7345L2.84208 10.9265C2.3249 11.2249 1.94744 11.7165 1.79272 12.2931C1.638 12.8698 1.71871 13.4843 2.01708 14.0015C2.31544 14.5187 2.80704 14.8961 3.38371 15.0509C3.96039 15.2056 4.5749 15.1249 5.09208 14.8265L5.42583 14.6337C6.0564 15.1724 6.78106 15.5899 7.56333 15.8652V16.25C7.56333 16.8467 7.80038 17.419 8.22233 17.841C8.64429 18.2629 9.21659 18.5 9.81333 18.5C10.4101 18.5 10.9824 18.2629 11.4043 17.841C11.8263 17.419 12.0633 16.8467 12.0633 16.25V15.8652C12.8453 15.5888 13.5694 15.1703 14.1993 14.6307L14.5346 14.8243C15.0517 15.1226 15.6663 15.2033 16.2429 15.0486C16.8196 14.8939 17.3112 14.5164 17.6096 13.9993C17.9079 13.4821 17.9886 12.8676 17.8339 12.2909C17.6792 11.7142 17.3017 11.2226 16.7846 10.9242L16.7838 10.925ZM14.8728 8.093C15.1268 9.0133 15.1268 9.9852 14.8728 10.9055C14.8285 11.0657 14.8386 11.2361 14.9016 11.3899C14.9646 11.5437 15.0769 11.6722 15.2208 11.7552L16.0338 12.2248C16.2062 12.3242 16.332 12.4881 16.3835 12.6803C16.4351 12.8725 16.4082 13.0773 16.3087 13.2496C16.2092 13.422 16.0454 13.5478 15.8532 13.5993C15.661 13.6509 15.4562 13.624 15.2838 13.5245L14.4693 13.0535C14.3252 12.9701 14.1575 12.9369 13.9925 12.9593C13.8275 12.9817 13.6747 13.0584 13.5581 13.1772C12.8905 13.8587 12.0495 14.345 11.1258 14.5835C10.9646 14.625 10.8217 14.7189 10.7198 14.8504C10.6178 14.982 10.5625 15.1438 10.5626 15.3102V16.25C10.5626 16.4489 10.4836 16.6397 10.3429 16.7803C10.2023 16.921 10.0115 17 9.81258 17C9.61366 17 9.4229 16.921 9.28225 16.7803C9.14159 16.6397 9.06258 16.4489 9.06258 16.25V15.311C9.06266 15.1445 9.00736 14.9828 8.90538 14.8512C8.8034 14.7196 8.66055 14.6257 8.49933 14.5842C7.57559 14.3448 6.73482 13.8575 6.06783 13.175C5.95122 13.0561 5.79838 12.9795 5.63339 12.9571C5.46841 12.9347 5.30065 12.9678 5.15658 13.0513L4.34358 13.5215C4.25825 13.5715 4.16387 13.6042 4.06587 13.6176C3.96787 13.631 3.86819 13.6249 3.77257 13.5996C3.67694 13.5743 3.58726 13.5303 3.50869 13.4703C3.43012 13.4102 3.36421 13.3352 3.31475 13.2495C3.2653 13.1638 3.23327 13.0692 3.22052 12.9712C3.20777 12.8731 3.21455 12.7734 3.24047 12.678C3.26638 12.5825 3.31092 12.4931 3.37153 12.415C3.43213 12.3368 3.50759 12.2714 3.59358 12.2225L4.40658 11.753C4.55054 11.6699 4.66283 11.5414 4.72582 11.3876C4.78881 11.2338 4.79892 11.0634 4.75458 10.9032C4.50059 9.98295 4.50059 9.01105 4.75458 8.09075C4.79813 7.93091 4.78753 7.76115 4.72444 7.60797C4.66135 7.45479 4.54931 7.3268 4.40583 7.244L3.59283 6.7745C3.42047 6.67504 3.29468 6.51119 3.24313 6.31899C3.19158 6.12679 3.21849 5.92198 3.31795 5.74962C3.41741 5.57727 3.58126 5.45148 3.77346 5.39993C3.96566 5.34838 4.17047 5.37529 4.34283 5.47475L5.15733 5.94575C5.30101 6.02939 5.46841 6.06291 5.63322 6.04105C5.79803 6.01919 5.95091 5.9432 6.06783 5.825C6.73539 5.14351 7.57639 4.65727 8.50008 4.41875C8.6618 4.37717 8.80502 4.28281 8.90705 4.15063C9.00908 4.01844 9.06408 3.85598 9.06333 3.689V2.75C9.06333 2.55109 9.14234 2.36032 9.283 2.21967C9.42365 2.07902 9.61441 2 9.81333 2C10.0122 2 10.203 2.07902 10.3437 2.21967C10.4843 2.36032 10.5633 2.55109 10.5633 2.75V3.689C10.5632 3.85547 10.6185 4.01723 10.7205 4.14881C10.8225 4.28039 10.9654 4.3743 11.1266 4.41575C12.0506 4.65511 12.8916 5.14241 13.5588 5.825C13.6754 5.94385 13.8283 6.02052 13.9933 6.04292C14.1582 6.06533 14.326 6.0322 14.4701 5.94875L15.2831 5.4785C15.3684 5.42848 15.4628 5.39583 15.5608 5.38243C15.6588 5.36903 15.7585 5.37514 15.8541 5.40043C15.9497 5.42571 16.0394 5.46965 16.118 5.52974C16.1965 5.58982 16.2624 5.66485 16.3119 5.7505C16.3614 5.83616 16.3934 5.93076 16.4061 6.02884C16.4189 6.12693 16.4121 6.22656 16.3862 6.32202C16.3603 6.41747 16.3157 6.50686 16.2551 6.58503C16.1945 6.6632 16.1191 6.72861 16.0331 6.7775L15.2201 7.247C15.0769 7.33003 14.9651 7.45811 14.9023 7.61127C14.8395 7.76443 14.8291 7.93407 14.8728 8.09375V8.093Z" fill="#7A808A"/>
</g>
<defs>
<clipPath id="clip0_3566_13041">
<rect width="18" height="18" fill="white" transform="translate(0.813477 0.5)"/>
</clipPath>
</defs>
</svg>
