<svg width="18" height="19" viewBox="0 0 18 19" fill="none" xmlns="http://www.w3.org/2000/svg">
<g clip-path="url(#clip0_3566_12968)">
<path d="M18 8.00006C18 7.94532 17.994 7.89073 17.982 7.83731L17.007 3.43631C16.8258 2.60099 16.363 1.85335 15.6961 1.31875C15.0292 0.784149 14.1987 0.495098 13.344 0.500063H4.656C3.80179 0.495788 2.97205 0.785154 2.30575 1.3197C1.63945 1.85424 1.17705 2.6015 0.996001 3.43631L0.018001 7.83731C0.0060071 7.89073 -2.97449e-05 7.94532 1.02705e-06 8.00006V8.75006C-0.000604078 9.48026 0.266192 10.1854 0.750001 10.7323V14.7501C0.751192 15.7443 1.14666 16.6974 1.84967 17.4004C2.55267 18.1034 3.5058 18.4989 4.5 18.5001H13.5C14.4942 18.4989 15.4473 18.1034 16.1503 17.4004C16.8533 16.6974 17.2488 15.7443 17.25 14.7501V10.7323C17.7338 10.1854 18.0006 9.48026 18 8.75006V8.00006ZM1.5 8.08181L2.46 3.76181C2.56878 3.261 2.84626 2.81274 3.24601 2.49205C3.64576 2.17135 4.14352 1.99767 4.656 2.00006H5.25V4.25006C5.25 4.44898 5.32902 4.63974 5.46967 4.78039C5.61032 4.92105 5.80109 5.00006 6 5.00006C6.19891 5.00006 6.38968 4.92105 6.53033 4.78039C6.67098 4.63974 6.75 4.44898 6.75 4.25006V2.00006H11.25V4.25006C11.25 4.44898 11.329 4.63974 11.4697 4.78039C11.6103 4.92105 11.8011 5.00006 12 5.00006C12.1989 5.00006 12.3897 4.92105 12.5303 4.78039C12.671 4.63974 12.75 4.44898 12.75 4.25006V2.00006H13.344C13.8565 1.99767 14.3542 2.17135 14.754 2.49205C15.1537 2.81274 15.4312 3.261 15.54 3.76181L16.5 8.08181V8.75006C16.5 9.14789 16.342 9.52942 16.0607 9.81072C15.7794 10.092 15.3978 10.2501 15 10.2501H14.25C13.8522 10.2501 13.4706 10.092 13.1893 9.81072C12.908 9.52942 12.75 9.14789 12.75 8.75006C12.75 8.55115 12.671 8.36039 12.5303 8.21973C12.3897 8.07908 12.1989 8.00006 12 8.00006C11.8011 8.00006 11.6103 8.07908 11.4697 8.21973C11.329 8.36039 11.25 8.55115 11.25 8.75006C11.25 9.14789 11.092 9.52942 10.8107 9.81072C10.5294 10.092 10.1478 10.2501 9.75 10.2501H8.25C7.85218 10.2501 7.47065 10.092 7.18934 9.81072C6.90804 9.52942 6.75 9.14789 6.75 8.75006C6.75 8.55115 6.67098 8.36039 6.53033 8.21973C6.38968 8.07908 6.19891 8.00006 6 8.00006C5.80109 8.00006 5.61032 8.07908 5.46967 8.21973C5.32902 8.36039 5.25 8.55115 5.25 8.75006C5.25 9.14789 5.09197 9.52942 4.81066 9.81072C4.52936 10.092 4.14783 10.2501 3.75 10.2501H3C2.60218 10.2501 2.22065 10.092 1.93934 9.81072C1.65804 9.52942 1.5 9.14789 1.5 8.75006V8.08181ZM13.5 17.0001H4.5C3.90326 17.0001 3.33097 16.763 2.90901 16.3411C2.48705 15.9191 2.25 15.3468 2.25 14.7501V11.6548C2.49495 11.7182 2.74697 11.7502 3 11.7501H3.75C4.17586 11.7503 4.59687 11.6596 4.98488 11.4841C5.37289 11.3086 5.71898 11.0523 6 10.7323C6.28103 11.0523 6.62711 11.3086 7.01512 11.4841C7.40314 11.6596 7.82414 11.7503 8.25 11.7501H9.75C10.1759 11.7503 10.5969 11.6596 10.9849 11.4841C11.3729 11.3086 11.719 11.0523 12 10.7323C12.281 11.0523 12.6271 11.3086 13.0151 11.4841C13.4031 11.6596 13.8241 11.7503 14.25 11.7501H15C15.253 11.7502 15.5051 11.7182 15.75 11.6548V14.7501C15.75 15.3468 15.5129 15.9191 15.091 16.3411C14.669 16.763 14.0967 17.0001 13.5 17.0001Z" fill="#7A808A"/>
</g>
<defs>
<clipPath id="clip0_3566_12968">
<rect width="18" height="18" fill="white" transform="translate(0 0.5)"/>
</clipPath>
</defs>
</svg>
