<svg width="17" height="17" viewBox="0 0 17 17" fill="none" xmlns="http://www.w3.org/2000/svg">
<g clip-path="url(#clip0_2646_10717)">
<path d="M15.4587 13.167H14.1253V11.8337C14.1253 11.6568 14.0551 11.4873 13.9301 11.3623C13.805 11.2372 13.6355 11.167 13.4587 11.167C13.2818 11.167 13.1123 11.2372 12.9873 11.3623C12.8622 11.4873 12.792 11.6568 12.792 11.8337V13.167H11.4587C11.2818 13.167 11.1123 13.2372 10.9873 13.3623C10.8622 13.4873 10.792 13.6568 10.792 13.8337C10.792 14.0105 10.8622 14.18 10.9873 14.3051C11.1123 14.4301 11.2818 14.5003 11.4587 14.5003H12.792V15.8337C12.792 16.0105 12.8622 16.18 12.9873 16.3051C13.1123 16.4301 13.2818 16.5003 13.4587 16.5003C13.6355 16.5003 13.805 16.4301 13.9301 16.3051C14.0551 16.18 14.1253 16.0105 14.1253 15.8337V14.5003H15.4587C15.6355 14.5003 15.805 14.4301 15.9301 14.3051C16.0551 14.18 16.1253 14.0105 16.1253 13.8337C16.1253 13.6568 16.0551 13.4873 15.9301 13.3623C15.805 13.2372 15.6355 13.167 15.4587 13.167Z" fill="white"/>
<path d="M14.125 4.5H12.125C12.125 3.43913 11.7036 2.42172 10.9534 1.67157C10.2033 0.921427 9.18587 0.5 8.125 0.5C7.06413 0.5 6.04672 0.921427 5.29657 1.67157C4.54643 2.42172 4.125 3.43913 4.125 4.5H2.125C1.59457 4.5 1.08586 4.71071 0.710786 5.08579C0.335714 5.46086 0.125 5.96957 0.125 6.5L0.125 13.1667C0.126059 14.0504 0.477588 14.8976 1.10248 15.5225C1.72737 16.1474 2.5746 16.4989 3.45833 16.5H9.45833C9.63514 16.5 9.80471 16.4298 9.92974 16.3047C10.0548 16.1797 10.125 16.0101 10.125 15.8333C10.125 15.6565 10.0548 15.487 9.92974 15.3619C9.80471 15.2369 9.63514 15.1667 9.45833 15.1667H3.45833C2.9279 15.1667 2.41919 14.956 2.04412 14.5809C1.66905 14.2058 1.45833 13.6971 1.45833 13.1667V6.5C1.45833 6.32319 1.52857 6.15362 1.6536 6.0286C1.77862 5.90357 1.94819 5.83333 2.125 5.83333H4.125V7.16667C4.125 7.34348 4.19524 7.51305 4.32026 7.63807C4.44529 7.7631 4.61486 7.83333 4.79167 7.83333C4.96848 7.83333 5.13805 7.7631 5.26307 7.63807C5.3881 7.51305 5.45833 7.34348 5.45833 7.16667V5.83333H10.7917V7.16667C10.7917 7.34348 10.8619 7.51305 10.9869 7.63807C11.112 7.7631 11.2815 7.83333 11.4583 7.83333C11.6351 7.83333 11.8047 7.7631 11.9297 7.63807C12.0548 7.51305 12.125 7.34348 12.125 7.16667V5.83333H14.125C14.3018 5.83333 14.4714 5.90357 14.5964 6.0286C14.7214 6.15362 14.7917 6.32319 14.7917 6.5V9.83333C14.7917 10.0101 14.8619 10.1797 14.9869 10.3047C15.112 10.4298 15.2815 10.5 15.4583 10.5C15.6351 10.5 15.8047 10.4298 15.9297 10.3047C16.0548 10.1797 16.125 10.0101 16.125 9.83333V6.5C16.125 5.96957 15.9143 5.46086 15.5392 5.08579C15.1641 4.71071 14.6554 4.5 14.125 4.5ZM5.45833 4.5C5.45833 3.79276 5.73928 3.11448 6.23938 2.61438C6.73948 2.11428 7.41776 1.83333 8.125 1.83333C8.83224 1.83333 9.51052 2.11428 10.0106 2.61438C10.5107 3.11448 10.7917 3.79276 10.7917 4.5H5.45833Z" fill="white"/>
</g>
<defs>
<clipPath id="clip0_2646_10717">
<rect width="16" height="16" fill="white" transform="translate(0.125 0.5)"/>
</clipPath>
</defs>
</svg>
