<svg width="30" height="30" viewBox="0 0 30 30" fill="none" xmlns="http://www.w3.org/2000/svg">
<rect width="30" height="30" rx="15" transform="matrix(-1 0 0 1 30 0)" fill="white" fill-opacity="0.08"/>
<g clip-path="url(#clip0_4600_16583)">
<path d="M20.3333 7H9.66667C8.196 7 7 8.196 7 9.66667V17.6667C7 19.1373 8.196 20.3333 9.66667 20.3333H11.6153L14.1147 22.4373C14.3693 22.664 14.6887 22.7767 15.006 22.776C15.318 22.776 15.6267 22.668 15.8673 22.4533L18.432 20.3333H20.334C21.8047 20.3333 23.0007 19.1373 23.0007 17.6667V9.66667C23.0007 8.196 21.804 7 20.3333 7ZM21.6667 17.6667C21.6667 18.402 21.0687 19 20.3333 19H18.192C18.0373 19 17.8867 19.054 17.7673 19.1527L14.9867 21.4293L12.288 19.1567C12.1673 19.0553 12.0153 19 11.858 19H9.666C8.93067 19 8.33267 18.402 8.33267 17.6667V9.66667C8.33267 8.93133 8.93067 8.33333 9.666 8.33333H20.3327C21.068 8.33333 21.666 8.93133 21.666 9.66667L21.6667 17.6667ZM16 18C16 18.552 15.552 19 15 19C14.448 19 14 18.552 14 18C14 17.448 14.448 17 15 17C15.552 17 16 17.448 16 18ZM17.576 11.634C17.9027 12.8993 17.29 14.212 16.1187 14.754C15.9593 14.828 15.666 15.1807 15.666 15.5333V15.6667C15.666 16.0353 15.368 16.3333 14.9993 16.3333C14.6307 16.3333 14.3327 16.0353 14.3327 15.6667V15.5333C14.3327 14.6107 14.964 13.82 15.558 13.5447C16.046 13.3187 16.4813 12.7287 16.2853 11.968C16.172 11.5307 15.8027 11.1613 15.366 11.0487C14.9373 10.936 14.5187 11.02 14.1847 11.2787C13.8553 11.534 13.6667 11.9187 13.6667 12.334C13.6667 12.7027 13.3687 13.0007 13 13.0007C12.6313 13.0007 12.3333 12.7027 12.3333 12.334C12.3333 11.5027 12.71 10.734 13.3687 10.2247C14.026 9.714 14.8767 9.54333 15.7 9.758C16.6053 9.99133 17.3427 10.7273 17.576 11.634Z" fill="white"/>
</g>
<defs>
<clipPath id="clip0_4600_16583">
<rect width="16" height="16" fill="white" transform="translate(7 7)"/>
</clipPath>
</defs>
</svg>
