<svg width="48" height="48" viewBox="0 0 48 48" fill="none" xmlns="http://www.w3.org/2000/svg">
<rect x="0.65" y="0.65" width="46.7" height="46.7" rx="4.35" fill="white"/>
<rect x="0.65" y="0.65" width="46.7" height="46.7" rx="4.35" stroke="#DBDEE1" stroke-width="1.3"/>
<g opacity="0.25" filter="url(#filter0_f_2224_83668)">
<rect x="9.5918" y="24" width="28.0945" height="17.5591" rx="8.77954" fill="url(#paint0_linear_2224_83668)"/>
</g>
<rect x="8.74023" y="8.74023" width="30.4357" height="30.4357" rx="12.3724" fill="#2AAAE1"/>
<path d="M15.3723 23.9509L19.2564 25.27L28.4776 19.6327C28.6112 19.5509 28.7482 19.7324 28.6329 19.8386L21.6518 26.2643L21.3922 29.8618C21.3724 30.1355 21.7021 30.2878 21.8977 30.0955L24.0472 27.9818L27.9766 30.9564C28.4002 31.2771 29.0135 31.0511 29.1277 30.5323L31.8638 18.109C32.0199 17.4003 31.3254 16.8023 30.6477 17.0618L15.3526 22.9187C14.8728 23.1024 14.8859 23.7857 15.3723 23.9509Z" fill="white"/>
<defs>
<filter id="filter0_f_2224_83668" x="7.34002" y="21.7482" width="32.5983" height="22.0621" filterUnits="userSpaceOnUse" color-interpolation-filters="sRGB">
<feFlood flood-opacity="0" result="BackgroundImageFix"/>
<feBlend mode="normal" in="SourceGraphic" in2="BackgroundImageFix" result="shape"/>
<feGaussianBlur stdDeviation="1.12589" result="effect1_foregroundBlur_2224_83668"/>
</filter>
<linearGradient id="paint0_linear_2224_83668" x1="23.6391" y1="41.046" x2="23.6391" y2="24" gradientUnits="userSpaceOnUse">
<stop stop-color="#0062E0"/>
<stop offset="1" stop-color="#19AFFF"/>
</linearGradient>
</defs>
</svg>
