<svg width="19" height="19" viewBox="0 0 19 19" fill="none" xmlns="http://www.w3.org/2000/svg">
<g clip-path="url(#clip0_3566_12976)">
<path d="M18.8135 8.75C18.8135 6.68225 17.1312 5 15.0635 5H13.5635V4.25C13.5635 3.0095 12.554 2 11.3135 2H10.5635V3.5H11.3135C11.7267 3.5 12.0635 3.836 12.0635 4.25V14H2.31348V9.5H0.813477V15.5H2.34423C2.32623 15.6237 2.31348 15.7483 2.31348 15.875C2.31348 17.3225 3.49098 18.5 4.93848 18.5C6.38598 18.5 7.56348 17.3225 7.56348 15.875C7.56348 15.7483 7.55073 15.6237 7.53273 15.5H12.0942C12.0762 15.6237 12.0635 15.7483 12.0635 15.875C12.0635 17.3225 13.241 18.5 14.6885 18.5C16.136 18.5 17.3135 17.3225 17.3135 15.875C17.3135 15.7483 17.3007 15.6237 17.2827 15.5H18.8135V8.75ZM6.06348 15.875C6.06348 16.4952 5.55873 17 4.93848 17C4.31823 17 3.81348 16.4952 3.81348 15.875C3.81348 15.7332 3.84273 15.6088 3.88323 15.5H5.99448C6.03498 15.6088 6.06348 15.7332 6.06348 15.875ZM15.0635 6.5C16.304 6.5 17.3135 7.5095 17.3135 8.75V9.5H13.5635V6.5H15.0635ZM15.8135 15.875C15.8135 16.4952 15.3087 17 14.6885 17C14.0682 17 13.5635 16.4952 13.5635 15.875C13.5635 15.7332 13.5927 15.6088 13.6332 15.5H15.7445C15.785 15.6088 15.8135 15.7332 15.8135 15.875ZM13.5635 14V11H17.3135V14H13.5635ZM9.06348 2.375C9.06348 1.34075 8.22198 0.5 7.18848 0.5H2.68848C1.65498 0.5 0.813477 1.34075 0.813477 2.375V8H9.06348V2.375ZM7.56348 6.5H2.31348V2.375C2.31348 2.16875 2.48148 2 2.68848 2H7.18848C7.39548 2 7.56348 2.16875 7.56348 2.375V6.5ZM3.81348 2.75H6.06348V4.25H3.81348V2.75Z" fill="#7A808A"/>
</g>
<defs>
<clipPath id="clip0_3566_12976">
<rect width="18" height="18" fill="white" transform="translate(0.813477 0.5)"/>
</clipPath>
</defs>
</svg>
