<svg width="19" height="19" viewBox="0 0 19 19" fill="none" xmlns="http://www.w3.org/2000/svg">
<g clip-path="url(#clip0_3566_12942)">
<path d="M6.43848 10.25C5.77096 10.25 5.11844 10.0521 4.56343 9.68121C4.00841 9.31036 3.57583 8.78326 3.32038 8.16656C3.06494 7.54986 2.9981 6.87126 3.12833 6.21657C3.25855 5.56189 3.57999 4.96052 4.05199 4.48852C4.52399 4.01651 5.12536 3.69508 5.78005 3.56485C6.43473 3.43463 7.11333 3.50146 7.73003 3.75691C8.34673 4.01235 8.87384 4.44494 9.24469 4.99995C9.61554 5.55497 9.81348 6.20749 9.81348 6.875C9.81248 7.7698 9.45659 8.62767 8.82387 9.26039C8.19115 9.89311 7.33328 10.249 6.43848 10.25ZM6.43848 5C6.06764 5 5.70512 5.10997 5.39678 5.316C5.08844 5.52202 4.84812 5.81486 4.7062 6.15747C4.56429 6.50008 4.52716 6.87708 4.5995 7.2408C4.67185 7.60451 4.85043 7.9386 5.11265 8.20083C5.37487 8.46305 5.70897 8.64163 6.07268 8.71397C6.4364 8.78632 6.8134 8.74919 7.15601 8.60728C7.49862 8.46536 7.79145 8.22504 7.99748 7.9167C8.20351 7.60835 8.31348 7.24584 8.31348 6.875C8.31348 6.37772 8.11593 5.90081 7.7643 5.54918C7.41267 5.19755 6.93576 5 6.43848 5ZM12.0635 17.75V17.375C12.0635 15.8832 11.4708 14.4524 10.416 13.3975C9.36106 12.3426 7.93032 11.75 6.43848 11.75C4.94663 11.75 3.51589 12.3426 2.461 13.3975C1.40611 14.4524 0.813477 15.8832 0.813477 17.375L0.813477 17.75C0.813477 17.9489 0.892494 18.1397 1.03315 18.2803C1.1738 18.421 1.36456 18.5 1.56348 18.5C1.76239 18.5 1.95315 18.421 2.09381 18.2803C2.23446 18.1397 2.31348 17.9489 2.31348 17.75V17.375C2.31348 16.281 2.74807 15.2318 3.52166 14.4582C4.29525 13.6846 5.34446 13.25 6.43848 13.25C7.53249 13.25 8.5817 13.6846 9.35529 14.4582C10.1289 15.2318 10.5635 16.281 10.5635 17.375V17.75C10.5635 17.9489 10.6425 18.1397 10.7831 18.2803C10.9238 18.421 11.1146 18.5 11.3135 18.5C11.5124 18.5 11.7032 18.421 11.8438 18.2803C11.9845 18.1397 12.0635 17.9489 12.0635 17.75ZM18.8135 14C18.8134 12.9865 18.5201 11.9947 17.9688 11.1443C17.4174 10.2939 16.6318 9.62119 15.7066 9.20748C14.7814 8.79376 13.7562 8.65669 12.7548 8.8128C11.7534 8.96892 10.8186 9.41154 10.0632 10.0873C9.9888 10.1527 9.92807 10.2321 9.88455 10.3212C9.84102 10.4102 9.81556 10.5069 9.80964 10.6058C9.80371 10.7047 9.81744 10.8038 9.85004 10.8974C9.88263 10.9909 9.93343 11.0771 9.99952 11.1509C10.0656 11.2247 10.1457 11.2847 10.2351 11.3274C10.3245 11.3701 10.4215 11.3947 10.5204 11.3997C10.6194 11.4047 10.7183 11.39 10.8116 11.3566C10.9048 11.3231 10.9905 11.2715 11.0637 11.2048C11.6033 10.7222 12.271 10.4062 12.9863 10.2947C13.7015 10.1833 14.4337 10.2813 15.0945 10.5769C15.7553 10.8724 16.3165 11.3529 16.7102 11.9603C17.1039 12.5677 17.3135 13.2761 17.3135 14C17.3135 14.1989 17.3925 14.3897 17.5331 14.5303C17.6738 14.671 17.8646 14.75 18.0635 14.75C18.2624 14.75 18.4532 14.671 18.5938 14.5303C18.7345 14.3897 18.8135 14.1989 18.8135 14ZM13.9385 7.25C13.271 7.25 12.6184 7.05206 12.0634 6.68121C11.5084 6.31036 11.0758 5.78326 10.8204 5.16656C10.5649 4.54986 10.4981 3.87126 10.6283 3.21657C10.7586 2.56189 11.08 1.96052 11.552 1.48852C12.024 1.01651 12.6254 0.695076 13.28 0.564851C13.9347 0.434626 14.6133 0.501462 15.23 0.756908C15.8467 1.01235 16.3738 1.44494 16.7447 1.99995C17.1155 2.55497 17.3135 3.20749 17.3135 3.875C17.3125 4.7698 16.9566 5.62767 16.3239 6.26039C15.6911 6.89311 14.8333 7.24901 13.9385 7.25ZM13.9385 2C13.5676 2 13.2051 2.10997 12.8968 2.316C12.5884 2.52202 12.3481 2.81486 12.2062 3.15747C12.0643 3.50008 12.0272 3.87708 12.0995 4.2408C12.1719 4.60451 12.3504 4.9386 12.6127 5.20083C12.8749 5.46305 13.209 5.64163 13.5727 5.71397C13.9364 5.78632 14.3134 5.74919 14.656 5.60728C14.9986 5.46536 15.2915 5.22504 15.4975 4.9167C15.7035 4.60835 15.8135 4.24584 15.8135 3.875C15.8135 3.37772 15.6159 2.90081 15.2643 2.54918C14.9127 2.19755 14.4358 2 13.9385 2Z" fill="#7A808A"/>
</g>
<defs>
<clipPath id="clip0_3566_12942">
<rect width="18" height="18" fill="white" transform="translate(0.813477 0.5)"/>
</clipPath>
</defs>
</svg>
